<svg width="22" height="15" viewBox="0 0 22 15" fill="none" xmlns="http://www.w3.org/2000/svg">
<path d="M13.0889 0.349609H14.3271C16.5239 0.349671 18.3123 2.13822 18.3125 4.33496V5.57422C18.3123 5.7231 18.1919 5.84277 18.043 5.84277C17.0022 5.84278 16.0156 6.12653 15.1611 6.62109L14.8369 6.80859L15.0459 7.11914L15.6104 7.96094L15.7754 8.20703L16.0459 8.08496C16.4681 7.89395 16.9676 7.78223 17.4238 7.78223C19.2794 7.78232 20.7898 9.29189 20.79 11.1475C20.79 13.0032 19.2795 14.5136 17.4238 14.5137C15.5844 14.5137 14.0576 12.9558 14.0576 11.1475C14.0577 10.251 14.4335 9.3582 15.1152 8.71191L15.3301 8.50879L15.165 8.2627L14.6406 7.48047L14.4111 7.13867L14.1104 7.41992C13.3103 8.16844 12.7041 9.13731 12.4307 10.2588L12.3809 10.4854L12.293 10.9238C12.1647 11.5674 11.5925 12.0361 10.9355 12.0361H6.96289L6.88086 12.2695C6.41091 13.5929 5.14893 14.5137 3.71582 14.5137C1.86008 14.5136 0.349609 13.0032 0.349609 11.1475C0.34981 9.32986 1.80333 7.85154 3.61035 7.79395L4.23926 7.77344L3.88965 7.25L3.04395 5.98047L2.95312 5.84473L2.79102 5.82617C1.42034 5.67379 0.349639 4.50735 0.349609 3.09668C0.349609 2.94772 0.470204 2.82725 0.619141 2.82715H3.73926C4.20256 2.82725 4.63228 3.05733 4.88965 3.44336H4.89062L5.20117 3.91016L5.30469 4.06641H10.8799L10.9834 3.91016L11.626 2.94727C11.6759 2.87243 11.7598 2.82719 11.8496 2.82715H14.0576V0.888672H13.0889C12.9398 0.888672 12.8193 0.768163 12.8193 0.619141C12.8194 0.470204 12.9399 0.349609 13.0889 0.349609ZM3.71582 8.32031C2.15643 8.32038 0.888876 9.58811 0.888672 11.1475C0.888672 12.707 2.15631 13.9755 3.71582 13.9756C4.7461 13.9756 5.66522 13.4071 6.15918 12.5586L6.46582 12.0322H3.71582C3.22355 12.0322 2.82715 11.6367 2.82715 11.1475C2.82735 10.6569 3.2252 10.2589 3.71582 10.2588H6.16992V9.55957C5.70645 9.55946 5.27687 9.32867 5.01953 8.94238H5.01855L4.80273 8.61816L4.73633 8.51953L4.62402 8.48145L4.4082 8.41504C4.18841 8.35636 3.95724 8.32031 3.71582 8.32031ZM17.4238 8.32031C17.0573 8.32031 16.8171 8.38016 16.4941 8.49316L16.0674 8.64258L16.3193 9.01855L17.6475 10.998C17.7301 11.1211 17.6968 11.2883 17.5732 11.3711L17.5723 11.3721C17.4498 11.4543 17.2818 11.4201 17.2002 11.2979L15.873 9.31836L15.6201 8.94238L15.3203 9.28125C14.8284 9.83639 14.5968 10.4897 14.5967 11.1475C14.5967 12.6918 15.8894 13.9756 17.4238 13.9756C18.9833 13.9755 20.251 12.707 20.251 11.1475C20.2508 9.58812 18.9832 8.32041 17.4238 8.32031Z" stroke="#006970" stroke-width="0.7"/>
</svg>
