<svg width="69" height="29" viewBox="0 0 69 29" fill="none" xmlns="http://www.w3.org/2000/svg">
<path d="M15.6416 21.8699C15.6416 22.1388 15.62 22.402 15.5864 22.6617C15.2017 25.7673 12.5915 28.1702 9.42343 28.1702C6.16806 28.1702 3.50204 25.6342 3.2318 22.4069C3.21714 22.2286 3.20527 22.0503 3.20527 21.8685C3.20527 18.3878 5.9879 15.5674 9.42343 15.5674C12.8569 15.5695 15.6416 18.39 15.6416 21.8699ZM5.56405 21.3349H7.35095C7.40052 21.1375 7.47803 20.9521 7.57649 20.7809L6.30772 19.4952C5.91598 20.0224 5.65622 20.6486 5.56405 21.3349ZM6.30911 24.2651L7.58417 22.9716C7.48501 22.8018 7.40401 22.622 7.35304 22.426H5.56615C5.66111 23.1081 5.91598 23.74 6.30911 24.2651ZM8.88436 23.9657C8.69304 23.9155 8.51148 23.8412 8.34529 23.7429L7.08071 25.025C7.59813 25.422 8.21122 25.6887 8.88436 25.7821V23.9657ZM8.88436 17.9604C8.20564 18.056 7.58836 18.3213 7.06744 18.7232L8.33412 20.0061C8.5045 19.9042 8.68745 19.8256 8.88367 19.774V17.9604H8.88436ZM12.5378 19.4945L11.2697 20.7802C11.3688 20.9514 11.4456 21.1368 11.4938 21.3342H13.2821C13.1899 20.6486 12.9302 20.0224 12.5378 19.4945ZM9.96111 19.7747C10.1573 19.8264 10.3403 19.9056 10.5107 20.0068L11.7766 18.7239C11.2557 18.3234 10.6377 18.0581 9.95971 17.9626L9.96111 19.7747ZM11.7655 25.025L10.5009 23.7436C10.3354 23.8433 10.1517 23.9148 9.96181 23.965V25.7828C10.6342 25.6901 11.248 25.422 11.7655 25.025ZM13.2891 22.4267H11.4882C11.4373 22.6206 11.3619 22.8046 11.2641 22.973L12.5343 24.2608C12.9274 23.7358 13.1934 23.1089 13.2891 22.4267Z" fill="#A8DADC"/>
<path d="M61.6768 21.8689C61.6768 22.1378 61.6558 22.401 61.6216 22.6607C61.2368 25.7663 58.6267 28.1693 55.4593 28.1693C52.2039 28.1693 49.5379 25.6333 49.2677 22.406C49.253 22.2276 49.2404 22.0493 49.2404 21.8675C49.2404 18.3869 52.0231 15.5664 55.4593 15.5664C58.8927 15.5685 61.6768 18.389 61.6768 21.8689ZM51.5985 21.334H53.3861C53.4357 21.1365 53.5139 20.9512 53.6116 20.7799L52.3429 19.4942C51.9504 20.0214 51.6914 20.6476 51.5985 21.334ZM52.3436 24.2641L53.6186 22.9706C53.5195 22.8008 53.4385 22.6211 53.3875 22.4251H51.6006C51.6963 23.1072 51.9504 23.7391 52.3436 24.2641ZM54.9195 23.9648C54.7282 23.9145 54.5466 23.8402 54.3804 23.7419L53.1159 25.024C53.6333 25.421 54.2464 25.6877 54.9195 25.7811V23.9648ZM54.9195 17.9595C54.2415 18.055 53.6235 18.3203 53.1033 18.7222L54.3693 20.0051C54.5397 19.9032 54.7226 19.8247 54.9188 19.773V17.9595H54.9195ZM58.5729 19.4935L57.3041 20.7792C57.4033 20.9504 57.4801 21.1358 57.529 21.3332H59.3166C59.2251 20.6476 58.9653 20.0214 58.5729 19.4935ZM55.9963 19.7737C56.1925 19.8254 56.3754 19.9046 56.5458 20.0058L57.8125 18.7222C57.2923 18.3218 56.6736 18.0564 55.9956 17.9609L55.9963 19.7737ZM57.8006 25.024L56.5367 23.7426C56.3705 23.8424 56.1876 23.9138 55.997 23.9641V25.7819C56.6701 25.6892 57.2832 25.421 57.8006 25.024ZM59.3236 22.4258H57.5227C57.4724 22.6196 57.3963 22.8036 57.2986 22.972L58.5687 24.2598C58.9619 23.7348 59.2286 23.1079 59.3236 22.4258Z" fill="#A8DADC"/>
<path d="M68.927 18.5512L68.2196 22.4281C68.0597 23.3055 67.3035 23.9444 66.4229 23.9444H62.8512C62.9483 23.5892 63.0279 23.2255 63.074 22.8512C63.1187 22.4974 63.141 22.1755 63.141 21.8705C63.141 17.5775 59.6936 14.0849 55.4586 14.0849C51.2221 14.0849 47.7747 17.5775 47.7747 21.8705C47.7747 22.0934 47.7894 22.3134 47.8075 22.5342C47.848 23.0189 47.9346 23.4894 48.0596 23.9437H16.8145C16.9122 23.5885 16.9911 23.2255 17.0379 22.8519C17.0826 22.4967 17.1042 22.1762 17.1042 21.8705C17.1042 17.5782 13.6575 14.0849 9.42179 14.0849C5.18604 14.0849 1.73864 17.5782 1.73864 21.8705C1.73864 22.0927 1.7533 22.3134 1.77076 22.5342C1.81196 23.0196 1.89854 23.4902 2.02354 23.9451H1.11717C1.11717 23.9451 -0.427414 18.9135 0.115845 16.6273C0.539696 14.8448 1.62412 14.1196 1.62412 14.1196C1.62412 14.1196 1.52217 11.5064 2.91245 8.80344C3.20712 8.22959 5.49887 5.0695 8.94906 1.91861C10.5258 0.47796 11.7659 0.028642 13.8887 0.0229813C19.9009 0.00670676 33.7226 -0.0230122 36.9877 0.0307645C39.1601 0.0668515 40.4086 0.409324 42.296 1.54925C42.4832 1.66176 42.5802 1.87969 42.5258 2.09268C42.4713 2.30566 42.2814 2.45425 42.0642 2.45425H41.9413L48.0401 8.50413C48.0401 8.50413 50.4491 8.51617 51.2521 8.54942C55.2435 8.71641 62.4218 9.31362 66.7742 12.6754C67.3614 13.1289 67.7455 13.8018 67.8383 14.5434C67.9598 15.5078 67.978 16.5749 67.978 16.5749C68.6881 16.952 69.0722 17.7523 68.927 18.5512ZM18.8381 2.45355H12.5368C11.8525 2.45355 11.1898 2.68351 10.6494 3.11019C9.1739 4.2763 8.01826 5.56269 7.15798 6.69625C6.98341 6.92621 6.95268 7.23614 7.07837 7.49653C7.20267 7.75763 7.46173 7.92462 7.74802 7.92886L18.8374 8.08737L18.8381 2.45355ZM22.1947 2.45355H21.7673V8.12911L22.1947 8.13548V2.45355ZM44.8566 8.45743L38.8032 2.45284H25.1247V8.17582L39.6286 8.38243C39.6209 8.30955 39.6104 8.23879 39.6104 8.16378C39.6104 7.18024 40.3045 6.38279 41.1606 6.38279C42.0181 6.38279 42.7115 7.18024 42.7115 8.16378C42.7115 8.25365 42.6996 8.33998 42.6892 8.4263L44.8566 8.45743Z" fill="#A8DADC"/>
</svg>
