<svg width="39" height="39" viewBox="0 0 39 39" fill="none" xmlns="http://www.w3.org/2000/svg">
<g clip-path="url(#clip0_2006_8731)">
<path d="M32.1447 19.5C31.2064 19.5 30.1943 19.7286 29.336 20.1171L28.2936 18.5626C29.7758 17.7047 31.4852 17.2148 33.2872 17.2148C33.9188 17.2148 34.4298 16.7038 34.4298 16.0723V13.7871C34.4298 9.37744 30.8414 5.78906 26.4318 5.78906H24.1466C23.5151 5.78906 23.004 6.3001 23.004 6.93164C23.004 7.56318 23.5151 8.07422 24.1466 8.07422H25.2892V10.3594H21.8615C21.4798 10.3594 21.1228 10.5502 20.9108 10.8682L19.7265 12.6445H10.1327L9.55916 11.7842C8.96449 10.8916 7.96915 10.3594 6.89802 10.3594H1.1427C0.511159 10.3594 0.00012207 10.8704 0.00012207 11.502C0.00012207 14.4376 2.22617 16.8634 5.07812 17.1803L6.63957 19.5219C2.9613 19.6392 0.00012207 22.6492 0.00012207 26.3555C0.00012207 30.1358 3.07526 33.2109 6.85559 33.2109C9.7793 33.2109 12.3461 31.3336 13.3024 28.6406H20.1755C21.6952 28.6406 23.0152 27.5583 23.312 26.0687L23.4738 25.2597C23.8946 23.1567 24.9885 21.3386 26.4736 19.9493L27.4416 21.3927C26.0553 22.7068 25.2892 24.5236 25.2892 26.3555C25.2892 30.0442 28.3905 33.2109 32.1447 33.2109C35.925 33.2109 39.0001 30.1358 39.0001 26.3555C39.0001 22.5751 35.925 19.5 32.1447 19.5ZM6.85559 28.633H10.8055C10.0042 30.0097 8.5156 30.9258 6.85559 30.9258C4.33499 30.9258 2.28528 28.8761 2.28528 26.3555C2.28528 23.8349 4.33499 21.7852 6.85559 21.7852C7.36343 21.7852 7.85199 21.8857 8.32304 22.0465L8.72233 22.6454C9.31701 23.5381 10.3123 24.0703 11.3835 24.0703H6.85559C5.5935 24.0703 4.57043 25.0934 4.57043 26.3555C4.57043 27.6176 5.5935 28.633 6.85559 28.633ZM32.1447 30.9258C29.669 30.9258 27.5743 28.8465 27.5743 26.3555C27.5743 25.2993 27.9442 24.2457 28.7472 23.3396L31.1962 26.9915C31.5437 27.512 32.2553 27.6582 32.7806 27.304C33.3051 26.9525 33.4445 26.2428 33.0931 25.7195L30.6433 22.0667C31.1947 21.8737 31.5629 21.7852 32.1447 21.7852C34.6653 21.7852 36.715 23.8349 36.715 26.3555C36.715 28.8761 34.6653 30.9258 32.1447 30.9258Z" fill="#A8DADC"/>
<path d="M37.7308 26.2707C37.7308 26.5225 37.7106 26.769 37.6792 27.0121C37.3189 29.9202 34.8748 32.1703 31.9082 32.1703C28.8599 32.1703 26.3635 29.7956 26.1104 26.7736C26.0967 26.6066 26.0856 26.4397 26.0856 26.2694C26.0856 23.0102 28.6912 20.3691 31.9082 20.3691C35.1232 20.3711 37.7308 23.0122 37.7308 26.2707ZM28.2943 25.7698H29.9676C30.014 25.585 30.0866 25.4114 30.1787 25.251L28.9907 24.0471C28.6239 24.5407 28.3806 25.1271 28.2943 25.7698ZM28.992 28.5135L30.1859 27.3024C30.0931 27.1433 30.0172 26.975 29.9695 26.7915H28.2963C28.3852 27.4302 28.6239 28.0219 28.992 28.5135ZM31.4034 28.2333C31.2243 28.1862 31.0543 28.1167 30.8986 28.0246L29.7145 29.2252C30.199 29.5969 30.7731 29.8467 31.4034 29.9341V28.2333ZM31.4034 22.61C30.7679 22.6994 30.1899 22.9479 29.7021 23.3242L30.8882 24.5255C31.0477 24.4301 31.219 24.3565 31.4028 24.3082V22.61H31.4034ZM34.8244 24.0464L33.637 25.2504C33.7299 25.4107 33.8018 25.5843 33.8469 25.7691H35.5214C35.4351 25.1271 35.1919 24.5407 34.8244 24.0464ZM32.4117 24.3088C32.5954 24.3572 32.7667 24.4314 32.9263 24.5262L34.1117 23.3249C33.6239 22.9499 33.0453 22.7014 32.4104 22.612L32.4117 24.3088ZM34.1013 29.2252L32.9171 28.0252C32.7622 28.1187 32.5902 28.1856 32.4123 28.2326V29.9348C33.042 29.848 33.6167 29.5969 34.1013 29.2252ZM35.528 26.7922H33.8417C33.7939 26.9737 33.7233 27.146 33.6318 27.3037L34.8212 28.5096C35.1893 28.0179 35.4384 27.4309 35.528 26.7922Z" fill="#A8DADC"/>
<path d="M11.9028 26.2707C11.9028 26.5225 11.8826 26.769 11.8512 27.0121C11.4909 29.9202 9.04677 32.1703 6.0802 32.1703C3.03191 32.1703 0.535471 29.7956 0.282428 26.7736C0.268696 26.6066 0.25758 26.4397 0.25758 26.2694C0.25758 23.0102 2.86321 20.3691 6.0802 20.3691C9.29523 20.3711 11.9028 23.0122 11.9028 26.2707ZM2.46632 25.7698H4.13955C4.18597 25.585 4.25855 25.4114 4.35075 25.251L3.16268 24.0471C2.79587 24.5407 2.55263 25.1271 2.46632 25.7698ZM3.16399 28.5135L4.35794 27.3024C4.26509 27.1433 4.18924 26.975 4.14151 26.7915H2.46828C2.55721 27.4302 2.79586 28.0219 3.16399 28.5135ZM5.57543 28.2333C5.39627 28.1862 5.22626 28.1167 5.07064 28.0246L3.88651 29.2252C4.37102 29.5969 4.94511 29.8467 5.57543 29.9341V28.2333ZM5.57543 22.61C4.93987 22.6994 4.36186 22.9479 3.87408 23.3242L5.06018 24.5255C5.21972 24.4301 5.39104 24.3565 5.57477 24.3082V22.61H5.57543ZM8.99642 24.0464L7.80901 25.2504C7.90186 25.4107 7.97378 25.5843 8.0189 25.7691H9.69343C9.60713 25.1271 9.36389 24.5407 8.99642 24.0464ZM6.58368 24.3088C6.76741 24.3572 6.93873 24.4314 7.09827 24.5262L8.28371 23.3249C7.79593 22.9499 7.21727 22.7014 6.58237 22.612L6.58368 24.3088ZM8.27325 29.2252L7.08911 28.0252C6.93415 28.1187 6.76218 28.1856 6.58433 28.2326V29.9348C7.214 29.848 7.78874 29.5969 8.27325 29.2252ZM9.69998 26.7922H8.01367C7.96594 26.9737 7.89532 27.146 7.80378 27.3037L8.99315 28.5096C9.36127 28.0179 9.6104 27.4309 9.69998 26.7922Z" fill="#A8DADC"/>
</g>
<defs>
<clipPath id="clip0_2006_8731">
<rect width="39" height="39" fill="white"/>
</clipPath>
</defs>
</svg>
