<svg width="52" height="52" viewBox="0 0 52 52" fill="none" xmlns="http://www.w3.org/2000/svg">
<path d="M0.253906 29.7206L0.866631 29.1079V28.6001V27.7335V26V25.1334V13.8666C0.866631 13.3883 1.25399 13 1.73326 13H40.7333C41.0158 13 41.281 13.1378 41.4431 13.3701L47.4422 21.9397C48.4449 22.7717 49.3974 23.7571 50.0898 25.1334L50.7442 26.8667C50.9218 27.5306 51.0553 28.2569 51.1134 29.0871L51.7461 29.7206C51.909 29.8827 52 30.1037 52 30.3334V32.0667C52 32.2964 51.909 32.5174 51.7461 32.6795L51.1334 33.2922V34.6667C51.1334 35.1451 50.746 35.5334 50.2667 35.5334H46.8C46.3207 35.5334 45.9334 35.1451 45.9334 34.6667C45.9334 31.3214 43.2112 28.6001 39.8667 28.6001C36.5223 28.6001 33.8001 31.3215 33.8001 34.6667C33.8001 35.1451 33.4127 35.5334 32.9335 35.5334H19.0668C18.5876 35.5334 18.2002 35.1451 18.2002 34.6667C18.2002 31.3214 15.478 28.6001 12.1336 28.6001C8.78912 28.6001 6.06694 31.3215 6.06694 34.6667C6.06694 35.1451 5.67958 35.5334 5.20031 35.5334H1.73367C1.2544 35.5334 0.867039 35.1451 0.867039 34.6667V33.2922L0.254311 32.6795C0.0914078 32.5174 0.000404358 32.2964 0.000404358 32.0667V30.3334C0 30.1036 0.0909996 29.8826 0.253906 29.7206ZM32.9334 20.8C32.9334 21.2784 33.3207 21.6666 33.8 21.6666H43.3334C43.6532 21.6666 43.947 21.4907 44.0977 21.209C44.2485 20.9274 44.2312 20.585 44.0544 20.3198L40.5877 15.1198C40.4265 14.878 40.1561 14.7333 39.8666 14.7333H33.8C33.3207 14.7333 32.9334 15.1215 32.9334 15.5999V20.8Z" fill="#A8DADC"/>
<path d="M16.7051 34.9292C16.7051 35.1236 16.6892 35.3139 16.6647 35.5017C16.3828 37.747 14.4704 39.4844 12.1492 39.4844C9.76404 39.4844 7.81071 37.6509 7.61272 35.3175C7.60197 35.1886 7.59327 35.0597 7.59327 34.9282C7.59327 32.4117 9.63204 30.3726 12.1492 30.3726C14.6648 30.3741 16.7051 32.4133 16.7051 34.9292ZM9.3215 34.5425H10.6307C10.667 34.3997 10.7238 34.2657 10.796 34.1419L9.86636 33.2124C9.57935 33.5935 9.38903 34.0462 9.3215 34.5425ZM9.86739 36.6609L10.8016 35.7258C10.7289 35.603 10.6696 35.473 10.6322 35.3313H9.32303C9.39261 35.8245 9.57935 36.2813 9.86739 36.6609ZM11.7542 36.4445C11.614 36.4082 11.481 36.3545 11.3592 36.2834L10.4327 37.2104C10.8118 37.4974 11.261 37.6902 11.7542 37.7578V36.4445ZM11.7542 32.1027C11.2569 32.1718 10.8047 32.3636 10.423 32.6542L11.3511 33.5817C11.4759 33.5081 11.6099 33.4513 11.7537 33.4139V32.1027H11.7542ZM14.431 33.2118L13.5019 34.1414C13.5745 34.2652 13.6308 34.3992 13.6661 34.542H14.9763C14.9088 34.0462 14.7185 33.5935 14.431 33.2118ZM12.5431 33.4144C12.6869 33.4518 12.8209 33.5091 12.9458 33.5822L13.8733 32.6547C13.4916 32.3652 13.0389 32.1733 12.5421 32.1043L12.5431 33.4144ZM13.8651 37.2104L12.9386 36.2839C12.8173 36.356 12.6828 36.4077 12.5436 36.444V37.7583C13.0363 37.6913 13.486 37.4974 13.8651 37.2104ZM14.9815 35.3318H13.662C13.6247 35.472 13.5694 35.605 13.4978 35.7268L14.4284 36.6579C14.7164 36.2783 14.9114 35.825 14.9815 35.3318Z" fill="#A8DADC"/>
<path d="M44.7998 34.9292C44.7998 35.1236 44.7839 35.3139 44.7594 35.5017C44.4775 37.747 42.5651 39.4844 40.2439 39.4844C37.8588 39.4844 35.9054 37.6509 35.7074 35.3175C35.6967 35.1886 35.688 35.0597 35.688 34.9282C35.688 32.4117 37.7268 30.3726 40.2439 30.3726C42.7595 30.3741 44.7998 32.4133 44.7998 34.9292ZM37.4162 34.5425H38.7254C38.7618 34.3997 38.8186 34.2657 38.8907 34.1419L37.9611 33.2124C37.6741 33.5935 37.4838 34.0462 37.4162 34.5425ZM37.9621 36.6609L38.8963 35.7258C38.8237 35.603 38.7643 35.473 38.727 35.3313H37.4178C37.4873 35.8245 37.6741 36.2813 37.9621 36.6609ZM39.8489 36.4445C39.7088 36.4082 39.5757 36.3545 39.454 36.2834L38.5274 37.2104C38.9065 37.4974 39.3557 37.6902 39.8489 37.7578V36.4445ZM39.8489 32.1027C39.3517 32.1718 38.8994 32.3636 38.5177 32.6542L39.4458 33.5817C39.5706 33.5081 39.7047 33.4513 39.8484 33.4139V32.1027H39.8489ZM42.5257 33.2118L41.5966 34.1414C41.6693 34.2652 41.7255 34.3992 41.7608 34.542H43.0711C43.0035 34.0462 42.8132 33.5935 42.5257 33.2118ZM40.6378 33.4144C40.7816 33.4518 40.9156 33.5091 41.0405 33.5822L41.968 32.6547C41.5864 32.3652 41.1336 32.1733 40.6368 32.1043L40.6378 33.4144ZM41.9598 37.2104L41.0333 36.2839C40.9121 36.356 40.7775 36.4077 40.6384 36.444V37.7583C41.131 37.6913 41.5807 37.4974 41.9598 37.2104ZM43.0762 35.3318H41.7567C41.7194 35.472 41.6641 35.605 41.5925 35.7268L42.5231 36.6579C42.8112 36.2783 43.0061 35.825 43.0762 35.3318Z" fill="#A8DADC"/>
</svg>
