<svg width="41" height="41" viewBox="0 0 41 41" fill="none" xmlns="http://www.w3.org/2000/svg">
<path d="M29.0416 30.7498C29.0416 31.6933 29.8064 32.4582 30.75 32.4582C31.6935 32.4582 32.4583 31.6933 32.4583 30.7498C32.4583 29.8063 31.6935 29.0415 30.75 29.0415C29.8064 29.0415 29.0416 29.8063 29.0416 30.7498Z" stroke="#086E86" stroke-width="3.41667" stroke-linecap="round" stroke-linejoin="round"/>
<path d="M18.7916 30.7498C18.7916 31.6933 19.5564 32.4582 20.5 32.4582C21.4435 32.4582 22.2083 31.6933 22.2083 30.7498C22.2083 29.8063 21.4435 29.0415 20.5 29.0415C19.5564 29.0415 18.7916 29.8063 18.7916 30.7498Z" stroke="#086E86" stroke-width="3.41667" stroke-linecap="round" stroke-linejoin="round"/>
<path d="M8.54163 30.7498C8.54163 31.6933 9.30648 32.4582 10.25 32.4582C11.1934 32.4582 11.9583 31.6933 11.9583 30.7498C11.9583 29.8063 11.1934 29.0415 10.25 29.0415C9.30648 29.0415 8.54163 29.8063 8.54163 30.7498Z" stroke="#086E86" stroke-width="3.41667" stroke-linecap="round" stroke-linejoin="round"/>
<path d="M29.0416 20.4998C29.0416 21.4433 29.8064 22.2082 30.75 22.2082C31.6935 22.2082 32.4583 21.4433 32.4583 20.4998C32.4583 19.5563 31.6935 18.7915 30.75 18.7915C29.8064 18.7915 29.0416 19.5563 29.0416 20.4998Z" stroke="#086E86" stroke-width="3.41667" stroke-linecap="round" stroke-linejoin="round"/>
<path d="M18.7916 20.4998C18.7916 21.4433 19.5564 22.2082 20.5 22.2082C21.4435 22.2082 22.2083 21.4433 22.2083 20.4998C22.2083 19.5563 21.4435 18.7915 20.5 18.7915C19.5564 18.7915 18.7916 19.5563 18.7916 20.4998Z" stroke="#086E86" stroke-width="3.41667" stroke-linecap="round" stroke-linejoin="round"/>
<path d="M8.54163 20.4998C8.54163 21.4433 9.30648 22.2082 10.25 22.2082C11.1934 22.2082 11.9583 21.4433 11.9583 20.4998C11.9583 19.5563 11.1934 18.7915 10.25 18.7915C9.30648 18.7915 8.54163 19.5563 8.54163 20.4998Z" stroke="#086E86" stroke-width="3.41667" stroke-linecap="round" stroke-linejoin="round"/>
<path d="M29.0416 10.2498C29.0416 11.1933 29.8064 11.9582 30.75 11.9582C31.6935 11.9582 32.4583 11.1933 32.4583 10.2498C32.4583 9.30636 31.6935 8.5415 30.75 8.5415C29.8064 8.5415 29.0416 9.30636 29.0416 10.2498Z" stroke="#086E86" stroke-width="3.41667" stroke-linecap="round" stroke-linejoin="round"/>
<path d="M18.7916 10.2498C18.7916 11.1933 19.5564 11.9582 20.5 11.9582C21.4435 11.9582 22.2083 11.1933 22.2083 10.2498C22.2083 9.30636 21.4435 8.5415 20.5 8.5415C19.5564 8.5415 18.7916 9.30636 18.7916 10.2498Z" stroke="#086E86" stroke-width="3.41667" stroke-linecap="round" stroke-linejoin="round"/>
<path d="M8.54163 10.2498C8.54163 11.1933 9.30648 11.9582 10.25 11.9582C11.1934 11.9582 11.9583 11.1933 11.9583 10.2498C11.9583 9.30636 11.1934 8.5415 10.25 8.5415C9.30648 8.5415 8.54163 9.30636 8.54163 10.2498Z" stroke="#086E86" stroke-width="3.41667" stroke-linecap="round" stroke-linejoin="round"/>
</svg>
