<svg width="17" height="16" viewBox="0 0 17 16" fill="none" xmlns="http://www.w3.org/2000/svg">
<path fill-rule="evenodd" clip-rule="evenodd" d="M12.549 15.938C10.9954 15.5487 7.81504 14.4514 4.9318 11.5682C2.04857 8.68497 0.951267 5.50459 0.562031 3.95105C0.338348 3.05826 0.741149 2.19674 1.42414 1.70889L3.21466 0.429938C4.26232 -0.318378 5.71973 -0.0644485 6.45256 0.994092L7.57979 2.62235C8.05829 3.31351 7.89326 4.26082 7.20919 4.74943L6.31037 5.39146C6.4464 5.9118 6.8695 6.98038 8.19457 8.30544C9.51963 9.6305 10.5882 10.0536 11.1085 10.1896L11.7505 9.29074C12.2392 8.60676 13.1865 8.44164 13.8776 8.92014L15.5059 10.0474C16.5644 10.7803 16.8184 12.2376 16.07 13.2853L14.7911 15.0759C14.3032 15.7588 13.4417 16.1617 12.549 15.938ZM6.01938 10.4806C8.64138 13.1026 11.5348 14.0983 12.9227 14.446C13.1256 14.4968 13.3708 14.4179 13.5395 14.1818L14.8185 12.3913C15.0679 12.0421 14.9833 11.5563 14.6304 11.312L13.0022 10.1848L12.3132 11.1494C12.0316 11.5436 11.5109 11.8527 10.9046 11.7219C10.1479 11.5586 8.74897 11.035 7.10699 9.39302C5.46501 7.75104 4.94136 6.35215 4.77807 5.59542C4.64726 4.9891 4.95645 4.46839 5.35064 4.18682L6.31521 3.49784L5.18796 1.86958C4.94368 1.51673 4.45788 1.43209 4.10866 1.68153L2.31814 2.96048C2.08201 3.12914 2.00318 3.37438 2.054 3.57724C2.40175 4.96517 3.39743 7.85863 6.01938 10.4806Z" fill="#0F0F0F"/>
</svg>
