<svg width="253" height="193" viewBox="0 0 253 193" fill="none" xmlns="http://www.w3.org/2000/svg">
<g filter="url(#filter0_d_2006_10823)">
<path d="M236.646 3H16.028C13.3708 3.00791 10.8248 4.06697 8.94588 5.94587C7.06697 7.82477 6.00791 10.3708 6 13.028L6 173.979C6.00791 176.636 7.06697 179.182 8.94588 181.061C10.8248 182.94 13.3708 183.999 16.028 184.007H236.646C239.303 183.999 241.849 182.94 243.728 181.061C245.607 179.182 246.666 176.636 246.674 173.979V13.028C246.666 10.3708 245.607 7.82477 243.728 5.94587C241.849 4.06697 239.303 3.00791 236.646 3Z" fill="#F2F2F2"/>
</g>
<path d="M155.919 16.0361H96.755C96.1567 16.0272 95.5627 16.1374 95.0074 16.3602C94.4521 16.5829 93.9467 16.9139 93.5205 17.3338C93.0943 17.7537 92.7558 18.2542 92.5248 18.8061C92.2938 19.358 92.1748 19.9503 92.1748 20.5487C92.1748 21.147 92.2938 21.7393 92.5248 22.2912C92.7558 22.8431 93.0943 23.3436 93.5205 23.7635C93.9467 24.1834 94.4521 24.5144 95.0074 24.7371C95.5627 24.9599 96.1567 25.0701 96.755 25.0612H156.419C157.012 25.0637 157.6 24.9487 158.149 24.7227C158.698 24.4968 159.196 24.1645 159.616 23.7449C160.035 23.3254 160.368 22.8268 160.594 22.2782C160.819 21.7295 160.934 21.1415 160.932 20.5482C160.744 19.3336 160.143 18.221 159.23 17.3988C158.316 16.5767 157.147 16.0953 155.919 16.0361Z" fill="white"/>
<path d="M115.306 36.5938H28.5635V132.863H115.306V36.5938Z" fill="#84DBFF"/>
<path d="M224.11 64.6719H139.373V76.2039H224.11V64.6719Z" fill="#CDD6E0"/>
<path d="M224.11 92.751H139.373V104.283H224.11V92.751Z" fill="#CDD6E0"/>
<path d="M224.11 121.331H139.373V132.863H224.11V121.331Z" fill="#CDD6E0"/>
<path d="M224.11 149.409H29.0645V160.941H224.11V149.409Z" fill="#CDD6E0"/>
<path d="M57.5788 74.2839C57.0358 71.5685 55.7149 69.5434 54.6285 69.7606C53.5421 69.9779 53.1017 72.3553 53.6447 75.0707C54.1877 77.786 55.5086 79.8112 56.595 79.5939C57.6814 79.3767 58.1218 76.9993 57.5788 74.2839Z" fill="#6E4504"/>
<path d="M89.3627 70.0507C88.2764 69.8334 86.9555 71.8586 86.4124 74.5739C85.8694 77.2893 86.3099 79.6667 87.3962 79.884C88.4826 80.1012 89.8035 78.0761 90.3465 75.3607C90.8896 72.6453 90.4491 70.2679 89.3627 70.0507Z" fill="#6E4504"/>
<path d="M113.801 132.863H30.0674C30.0674 132.863 31.5674 115.815 37.0874 107.793H37.5874C41.0974 106.293 54.6354 101.275 61.1534 96.261L61.6534 93.2529C61.6534 93.2529 64.1604 98.7689 70.1774 99.2699H74.1894C75.9661 98.9579 77.6518 98.2567 79.1255 97.2164C80.5992 96.1761 81.8245 94.8226 82.7134 93.2529L83.2134 96.261C89.7314 101.275 103.269 106.289 106.277 107.292H106.777C112.297 115.314 113.801 132.863 113.801 132.863Z" fill="white"/>
<path d="M62.1582 105.788L64.6652 110.301L68.6762 104.284L67.6762 103.284L64.6682 107.797L61.1582 101.279C61.2508 102.825 61.5884 104.347 62.1582 105.788Z" fill="#CDD6E0"/>
<path d="M82.716 93.3621C82.0396 94.9815 80.9357 96.3866 79.5223 97.4271C78.109 98.4676 76.4393 99.1042 74.692 99.269H70.562C68.8411 99.2044 67.1694 98.6769 65.7231 97.7421C64.0219 96.6574 62.6138 95.1706 61.623 93.4131C61.9311 92.7294 62.1127 91.9955 62.159 91.2471V89.7471C67.173 95.7641 72.187 96.7671 72.187 96.7671C72.187 96.7671 77.703 95.7671 82.215 89.7471V91.2471C82.4714 91.566 82.6433 91.9442 82.715 92.347C82.8162 92.6778 82.8165 93.0311 82.716 93.3621Z" fill="#6E4504"/>
<path d="M82.2132 92.2471C77.7002 97.7621 72.6862 98.2641 72.1852 98.2641C71.6852 98.2641 66.6692 97.2641 62.1572 92.2471V90.7471C67.1712 96.7641 72.1852 97.7671 72.1852 97.7671C72.1852 97.7671 77.7002 96.7671 82.2132 90.7471V92.2471Z" fill="#6E4504"/>
<path d="M89.2334 71.186C89.2584 71.7307 89.0802 72.2653 88.7334 72.686C85.7254 95.249 71.6854 97.255 71.6854 97.255C71.6854 97.255 57.6464 94.748 54.6374 72.686C54.5755 72.157 54.4053 71.6464 54.1374 71.186C53.6374 65.67 52.6374 48.623 71.1854 48.623C90.7374 48.625 89.7344 65.672 89.2334 71.186Z" fill="#9A5E00"/>
<path d="M72.1855 126.847V132.367H100.264L106.782 107.798L106.282 107.298C102.772 106.298 89.2335 101.281 82.7155 96.2671C82.7155 96.2671 84.2156 101.783 79.2056 112.312C79.2046 112.306 74.6925 120.83 72.1855 126.847Z" fill="#40596B"/>
<path d="M81.7123 105.788L79.2053 110.301L75.1943 104.284L76.1943 103.284L79.2023 107.797L82.7123 101.279C82.6192 102.825 82.2817 104.347 81.7123 105.788Z" fill="#CDD6E0"/>
<path d="M73.6929 106.79L75.6929 119.325C74.1929 121.832 73.1859 124.841 71.6819 127.347C70.5475 124.576 69.2067 121.895 67.6709 119.325L69.6769 106.79L67.1699 103.782L69.6769 99.771H73.6929L76.1999 103.782L73.6929 106.79Z" fill="#FF7058"/>
<path d="M74.6929 132.868H43.6039L37.0859 108.299L37.5859 107.799C41.0959 106.299 54.6339 101.281 61.1519 96.2671C61.1519 96.2671 59.6519 101.783 64.6619 112.312C64.6619 112.312 69.1749 120.836 72.1829 126.853C72.8678 128.918 73.7068 130.929 74.6929 132.868Z" fill="#334A5E"/>
<path d="M89.3421 70.186L88.8241 70.686C88.8241 70.686 87.7891 61.661 83.6481 55.644C83.6481 55.644 81.0601 59.655 71.7431 59.655C62.4261 59.655 59.8381 55.644 59.8381 55.644C55.6971 62.166 54.6581 70.686 54.6581 70.686L54.1401 70.186C53.6221 64.67 52.5871 47.623 71.7401 47.623C90.8931 47.623 89.8581 64.672 89.3421 70.186Z" fill="#2F2F30"/>
<defs>
<filter id="filter0_d_2006_10823" x="0" y="0" width="252.674" height="193.007" filterUnits="userSpaceOnUse" color-interpolation-filters="sRGB">
<feFlood flood-opacity="0" result="BackgroundImageFix"/>
<feColorMatrix in="SourceAlpha" type="matrix" values="0 0 0 0 0 0 0 0 0 0 0 0 0 0 0 0 0 0 127 0" result="hardAlpha"/>
<feOffset dy="3"/>
<feGaussianBlur stdDeviation="3"/>
<feColorMatrix type="matrix" values="0 0 0 0 0 0 0 0 0 0 0 0 0 0 0 0 0 0 0.161 0"/>
<feBlend mode="normal" in2="BackgroundImageFix" result="effect1_dropShadow_2006_10823"/>
<feBlend mode="normal" in="SourceGraphic" in2="effect1_dropShadow_2006_10823" result="shape"/>
</filter>
</defs>
</svg>
