<svg width="34" height="34" viewBox="0 0 34 34" fill="none" xmlns="http://www.w3.org/2000/svg">
<path d="M16.721 33.442C25.9558 33.442 33.442 25.9558 33.442 16.721C33.442 7.48625 25.9558 0 16.721 0C7.48625 0 0 7.48625 0 16.721C0 25.9558 7.48625 33.442 16.721 33.442Z" fill="#6EB1E1"/>
<path d="M8.21582 5.00879V26.3178H21.9978C21.9978 27.0323 22.2817 27.7175 22.7869 28.2227C23.2921 28.728 23.9773 29.0118 24.6918 29.0118C25.4063 29.0118 26.0915 28.728 26.5968 28.2227C27.102 27.7175 27.3858 27.0323 27.3858 26.3178V5.00879H8.21582Z" fill="#F2F2F2"/>
<path d="M21.9985 26.3159C22.0015 25.9889 22.0617 25.665 22.1765 25.3589H5.52246V26.2939C5.52536 27.0133 5.81244 27.7025 6.32116 28.2112C6.82988 28.7199 7.51903 29.007 8.23846 29.0099H24.6925C24.3385 29.0105 23.9879 28.9413 23.6607 28.8062C23.3336 28.671 23.0363 28.4726 22.786 28.2223C22.5358 27.972 22.3373 27.6747 22.2022 27.3476C22.067 27.0204 21.9978 26.6699 21.9985 26.3159Z" fill="#CDD6E0"/>
<path d="M23.8453 8.57178H11.7783V9.55178H23.8453V8.57178Z" fill="#CDD6E0"/>
<path d="M23.8453 11.5547H11.7783V12.5347H23.8453V11.5547Z" fill="#CDD6E0"/>
<path d="M23.8453 14.5386H11.7783V15.5186H23.8453V14.5386Z" fill="#CDD6E0"/>
<path d="M26.0942 21.752V20.639H23.5782V18.123H22.4652V20.639H19.9492V21.752H22.4652V24.246H23.5782V21.752H26.0942Z" fill="#FF553E"/>
</svg>
