<svg width="24" height="24" viewBox="0 0 24 24" fill="none" xmlns="http://www.w3.org/2000/svg">
<g clip-path="url(#clip0_2006_10521)">
<g clip-path="url(#clip1_2006_10521)">
<path d="M19.875 5.4375C19.875 4.74713 19.3154 4.1875 18.625 4.1875H18.3125V5.125C18.3125 5.47017 18.0327 5.75 17.6875 5.75H17.0625C17.4077 5.75 17.6875 5.47017 17.6875 5.125V3.25C17.6875 2.90481 17.4077 2.625 17.0625 2.625C16.7173 2.625 16.4375 2.90481 16.4375 3.25V4.1875H14.875V5.125C14.875 5.47017 14.5952 5.75 14.25 5.75H13.625C13.9702 5.75 14.25 5.47017 14.25 5.125V3.25C14.25 2.90481 13.9702 2.625 13.625 2.625C13.2798 2.625 13 2.90481 13 3.25V4.1875H11.125V5.125C11.125 5.47017 10.8452 5.75 10.5 5.75H9.875C10.2202 5.75 10.5 5.47017 10.5 5.125V3.25C10.5 2.90481 10.2202 2.625 9.875 2.625C9.52983 2.625 9.25 2.90481 9.25 3.25V4.1875H7.6875V5.125C7.6875 5.47017 7.40767 5.75 7.0625 5.75H6.4375C6.78267 5.75 7.0625 5.47017 7.0625 5.125V3.25C7.0625 2.90481 6.78267 2.625 6.4375 2.625C6.09233 2.625 5.8125 2.90481 5.8125 3.25V4.1875H4.875C4.18463 4.1875 3.625 4.74713 3.625 5.4375V7.3125H19.875V5.4375Z" fill="#C0C5C2"/>
<path d="M18.9375 14.5C17.039 14.5 15.5 16.039 15.5 17.9375C15.5 19.836 17.039 21.375 18.9375 21.375C20.836 21.375 22.375 19.836 22.375 17.9375C22.375 16.039 20.836 14.5 18.9375 14.5ZM18.9375 18.5625C18.8575 18.5625 18.7816 18.5461 18.7113 18.5187L17.5703 19.4316L17.1797 18.9434L18.3218 18.0299C18.3173 17.9995 18.3125 17.9691 18.3125 17.9375C18.3125 17.7067 18.439 17.5075 18.625 17.3992V15.4375H19.25V17.3992C19.436 17.5075 19.5625 17.7067 19.5625 17.9375C19.5625 18.2827 19.2827 18.5625 18.9375 18.5625Z" fill="#C0C5C2"/>
<path d="M4.875 19.5H15.1874C14.9867 19.0189 14.875 18.4914 14.875 17.9375C14.875 16.2478 15.907 14.7999 17.3746 14.1875H15.8125V12.3125H17.6875V14.073C18.0815 13.9456 18.5011 13.875 18.9375 13.875C19.2607 13.875 19.5736 13.9167 19.875 13.9881V7.9375H3.625V18.25C3.625 18.9406 4.18437 19.5 4.875 19.5ZM15.8125 8.875H17.6875V10.75H15.8125V8.875ZM12.375 8.875H14.25V10.75H12.375V8.875ZM12.375 12.3125H14.25V14.1875H12.375V12.3125ZM12.375 15.75H14.25V17.625H12.375V15.75ZM8.9375 8.875H10.8125V10.75H8.9375V8.875ZM8.9375 12.3125H10.8125V14.1875H8.9375V12.3125ZM8.9375 15.75H10.8125V17.625H8.9375V15.75ZM5.5 8.875H7.375V10.75H5.5V8.875ZM5.5 12.3125H7.375V14.1875H5.5V12.3125ZM5.5 15.75H7.375V17.625H5.5V15.75Z" fill="#C0C5C2"/>
</g>
</g>
<defs>
<clipPath id="clip0_2006_10521">
<rect width="24" height="24" fill="white"/>
</clipPath>
<clipPath id="clip1_2006_10521">
<rect width="20" height="20" fill="white" transform="translate(3 2)"/>
</clipPath>
</defs>
</svg>
