<svg width="24" height="24" viewBox="0 0 24 24" fill="none" xmlns="http://www.w3.org/2000/svg">
<g clip-path="url(#clip0_2006_10510)">
<path d="M7.20649 5.64946L14.3822 3.69079L14.0022 2.92268C13.7536 2.42341 13.1472 2.21723 12.6479 2.46586L6.22412 5.64946H7.20649Z" fill="#006970"/>
<path d="M16.6093 3.74707C16.5203 3.74707 16.4314 3.7592 16.3424 3.78345L14.6567 4.24432L9.5083 5.64915H15.352H17.8989L17.5835 4.49294C17.4623 4.04219 17.0539 3.74707 16.6093 3.74707Z" fill="#006970"/>
<path d="M18.9524 6.35693H18.722H18.4086H18.0953H15.7041H6.91735H5.76519H4.79495H4.61505H4.01269C3.69332 6.35693 3.40831 6.50449 3.22235 6.73694C3.13745 6.84408 3.07277 6.96738 3.03638 7.10281C3.01415 7.1877 3 7.27664 3 7.3676V7.48888V8.64104V18.6285C3 19.1864 3.45278 19.6391 4.01067 19.6391H18.9504C19.5083 19.6391 19.961 19.1864 19.961 18.6285V15.8087H13.9637C13.0157 15.8087 12.2456 15.0386 12.2456 14.0906V13.1648V12.8515V12.5382V11.8428C12.2456 11.3779 12.4315 10.9555 12.7327 10.6462C12.9996 10.3713 13.3573 10.1853 13.7576 10.1389C13.8243 10.1308 13.893 10.1267 13.9617 10.1267H19.1202H19.4335H19.7468H19.961V7.3676C19.9631 6.80971 19.5103 6.35693 18.9524 6.35693Z" fill="#006970"/>
<path d="M20.6701 11.0929C20.569 10.9999 20.4498 10.9292 20.3164 10.8827C20.2133 10.8483 20.1041 10.8281 19.9889 10.8281H19.9626H19.9424H19.6291H18.4992H13.9633C13.4054 10.8281 12.9526 11.2809 12.9526 11.8388V12.3421V12.6554V12.9687V14.0885C12.9526 14.6464 13.4054 15.0992 13.9633 15.0992H19.9626H19.9889C20.1041 15.0992 20.2133 15.079 20.3164 15.0446C20.4498 15.0001 20.569 14.9274 20.6701 14.8344C20.8722 14.6505 20.9996 14.3836 20.9996 14.0885V11.8388C20.9996 11.5437 20.8722 11.2768 20.6701 11.0929ZM16.0736 13.1648C16.0736 13.4437 15.8472 13.6701 15.5682 13.6701H15.2327C14.9538 13.6701 14.7274 13.4437 14.7274 13.1648V12.8292C14.7274 12.6675 14.8022 12.524 14.9214 12.433C15.0083 12.3663 15.1155 12.3239 15.2327 12.3239H15.3176H15.5682C15.8472 12.3239 16.0736 12.5503 16.0736 12.8292V13.1648Z" fill="#006970"/>
</g>
<defs>
<clipPath id="clip0_2006_10510">
<rect width="18" height="18" fill="white" transform="translate(3 2)"/>
</clipPath>
</defs>
</svg>
