<svg width="351" height="241" viewBox="0 0 351 241" fill="none" xmlns="http://www.w3.org/2000/svg">
<rect x="258" y="87" width="205" height="17" fill="black" fill-opacity="0.5"/>
<rect x="258" y="193" width="205" height="17" fill="black" fill-opacity="0.5"/>
<rect x="292" y="29" width="205" height="7" fill="black" fill-opacity="0.5"/>
<g clip-path="url(#clip0_2006_9105)">
<path d="M105.985 226.875L63.8045 226.875C37.0427 226.875 15.4207 205.214 15.4207 178.404L15.4207 145.557C15.4207 118.746 37.0427 97.0852 63.8045 97.0852L105.985 97.0852C109.353 82.7036 118.214 82.7036 118.214 82.7036C118.214 82.7036 116.087 92.2914 114.492 97.0852L274.708 97.0852C289.773 97.0852 301.824 109.336 301.824 124.251V199.532C301.824 214.624 289.596 226.697 274.708 226.697H114.492C116.087 231.669 118.214 241.079 118.214 241.079C118.214 241.079 109.353 241.257 105.985 226.875Z" fill="black" fill-opacity="0.18"/>
<path d="M286.581 188.524V104.72C286.581 91.9361 276.302 81.6382 263.541 81.6382L49.8016 81.6382C22.331 81.6382 0 104.01 0 131.53L0 161.714C0 189.234 22.331 211.605 49.8016 211.605L263.718 211.605C276.302 211.428 286.581 201.13 286.581 188.524Z" fill="#3B6A87"/>
<path d="M273.644 162.424V130.82C273.644 105.252 269.39 92.4688 243.869 92.4688L127.075 101.701L54.5874 84.479C27.8257 84.479 6.20361 106.14 6.20361 132.95L6.20361 160.116C6.20361 186.926 27.8257 208.587 54.5874 208.587L127.075 191.542L243.869 200.775C269.39 200.775 273.644 187.991 273.644 162.424Z" fill="#1B5B64"/>
<path d="M90.2109 84.1247C89.6792 87.6757 96.5911 86.6104 98.1862 84.1247C99.6041 81.639 102.794 67.2573 102.794 67.2573C102.794 67.2573 93.0465 67.2573 90.2109 84.1247Z" fill="#1B5B64"/>
<path d="M74.4368 86.4336C74.4368 86.4336 122.466 96.1989 131.682 97.2642C140.898 98.152 236.425 99.2173 240.679 97.2642C244.755 95.3111 243.869 92.4703 243.869 92.4703C243.869 92.4703 232.703 86.4336 176.344 86.4336C119.985 86.4336 74.4368 86.4336 74.4368 86.4336Z" fill="#C7D6EB"/>
<path d="M260.883 89.6289C263.365 90.3391 274.885 101.17 277.189 101.702C279.493 102.413 282.151 96.0207 275.239 89.6289C268.327 83.2371 260.883 89.6289 260.883 89.6289Z" fill="#FF6166"/>
<path d="M273.644 103.655C273.644 103.655 275.771 111.468 281.619 114.663C281.619 114.663 281.265 104.543 273.644 103.655Z" fill="#FFCC00"/>
<path d="M37.928 88.919C37.928 88.919 15.9515 87.1435 10.4573 109.16C10.4573 109.16 30.8388 103.301 37.928 88.919Z" fill="#E9E8D8"/>
<path d="M90.2107 208.944C89.679 205.393 96.591 206.458 98.186 208.944C99.7811 211.429 102.971 225.811 102.971 225.811C102.971 225.811 93.0464 225.989 90.2107 208.944Z" fill="#1B5B64"/>
<path d="M74.4374 206.812C74.4374 206.812 122.467 197.047 131.683 195.981C140.899 195.094 236.426 194.028 240.679 195.981C244.755 197.934 243.869 200.775 243.869 200.775C243.869 200.775 232.704 206.812 176.345 206.812C119.986 206.812 74.4374 206.812 74.4374 206.812Z" fill="#C7D6EB"/>
<path d="M127.075 101.702C127.075 101.702 78.6914 90.3386 69.8299 92.4692C60.9684 94.4223 54.2336 119.279 54.2336 146.622C54.2336 173.965 60.9684 198.822 69.8299 200.775C78.6914 202.728 127.075 191.543 127.075 191.543C127.075 191.543 124.24 176.451 124.24 146.622C124.24 116.794 127.075 101.702 127.075 101.702ZM269.036 146.622C269.036 113.42 260.707 103.655 260.707 103.655L265.846 96.908C280.202 116.616 278.607 146.622 278.607 146.622C278.607 146.622 280.202 176.451 265.846 196.337L260.707 189.59C260.884 189.59 269.036 179.824 269.036 146.622Z" fill="#C7D6EB"/>
<path d="M260.884 203.615C263.365 202.905 274.885 192.075 277.189 191.542C279.493 190.832 282.152 197.224 275.24 203.615C268.328 210.007 260.884 203.615 260.884 203.615Z" fill="#FF6166"/>
<path d="M273.644 189.589C273.644 189.589 275.77 181.776 281.619 178.581C281.619 178.581 281.265 188.523 273.644 189.589Z" fill="#FFCC00"/>
<path d="M37.9285 204.149C37.9285 204.149 15.952 205.924 10.4578 183.908C10.4578 184.085 30.8393 189.944 37.9285 204.149Z" fill="#E9E8D8"/>
</g>
<g clip-path="url(#clip1_2006_9105)">
<path d="M206.793 9.74017C205.538 12.281 203.336 12.4504 202.026 11.9987C200.715 11.5187 200.018 11.547 199.935 11.3776C199.851 11.2082 199.962 10.2483 200.743 10.2201C201.524 10.1919 202.75 10.7565 203.642 9.8531C204.562 8.97793 206.793 9.74017 206.793 9.74017Z" fill="#C68F7C"/>
<path d="M206.792 54.5153C205.537 51.9745 203.335 51.8052 202.025 52.2568C200.714 52.7368 200.017 52.7085 199.934 52.8779C199.85 53.0473 199.961 54.0072 200.742 54.0354C201.523 54.0636 202.749 53.499 203.642 54.4024C204.562 55.3058 206.792 54.5153 206.792 54.5153Z" fill="#C68F7C"/>
<path d="M205.064 32.0146C205.064 33.7931 203.642 35.2329 201.886 35.2329L152.178 35.2329C150.421 35.2329 148.999 33.7931 148.999 32.0146C148.999 30.236 150.421 28.7962 152.178 28.7962L201.886 28.7962C203.642 28.7962 205.064 30.236 205.064 32.0146Z" fill="#1E1E1E"/>
<path d="M167.176 32.1271V32.4659C167.176 33.5951 166.284 34.4985 165.169 34.4985H153.181C152.066 34.4985 151.173 33.5951 151.173 32.4659V32.1271C151.173 30.9979 152.066 30.0945 153.181 30.0945H165.169C166.284 30.0945 167.176 30.9979 167.176 32.1271Z" fill="#2D2D2D"/>
<path d="M219.477 32.0151C219.477 35.1487 216.968 37.7178 213.845 37.7178L169.044 37.7178C165.949 37.7178 163.412 35.177 163.412 32.0151C163.412 28.8814 165.921 26.3124 169.044 26.3124L213.873 26.3124C216.968 26.3124 219.477 28.8532 219.477 32.0151Z" fill="#5792B7"/>
<path d="M189.312 32.0146C189.312 38.6772 190.093 43.8152 191.013 47.203C191.598 49.2921 193.466 50.7319 195.585 50.7601C200.157 50.8165 204.701 50.1955 206.988 49.7155C208.298 49.4332 209.134 48.0781 208.8 46.7795C208.214 44.4928 209.915 42.2625 212.257 42.2625L243.509 42.2625C248.109 42.2625 251.817 38.4795 251.817 33.8496V30.236C251.817 25.5779 248.081 21.8232 243.509 21.8232L212.257 21.8232C209.915 21.8232 208.214 19.5929 208.8 17.3062C209.134 15.9793 208.326 14.6525 206.988 14.3701C204.674 13.862 200.129 13.2691 195.557 13.3256C193.41 13.3538 191.543 14.8218 190.985 16.9109C190.065 20.2422 189.312 25.3803 189.312 32.0146Z" fill="#1B5B64"/>
<path d="M208.799 17.2497C209.134 15.9228 208.325 14.5959 206.987 14.3136C205.649 14.0313 203.558 13.6925 201.133 13.4949C199.599 13.9748 198.373 15.217 197.927 16.8544C197.007 20.2422 196.254 25.3802 196.254 32.0145C196.254 38.6771 197.034 43.8152 197.954 47.2029C198.4 48.8121 199.627 50.0543 201.16 50.5342C203.586 50.3083 205.677 49.9978 207.015 49.7155C208.325 49.4332 209.162 48.0781 208.827 46.7794C208.242 44.4927 209.942 42.2625 212.284 42.2625H219.226L243.509 42.2625C248.109 42.2625 251.817 38.4795 251.817 33.8496V30.236C251.817 25.5778 248.081 21.8231 243.509 21.8231L219.17 21.8231H212.228C209.915 21.7666 208.214 19.5364 208.799 17.2497Z" fill="#005893"/>
<path d="M212.926 42.2354H230.63L237.627 40.9932V31.9874L205.427 32.4391C205.455 32.4674 206.793 42.2354 212.926 42.2354Z" fill="#1B5B64"/>
<path d="M212.926 21.7672L230.629 21.7672L237.627 23.0094V32.0151L205.426 31.5634C205.454 31.5352 206.792 21.7672 212.926 21.7672Z" fill="#1B5B64"/>
<path d="M239.439 32.0151C239.439 33.4549 238.268 34.6406 236.846 34.6406L207.991 34.6406C206.569 34.6406 205.398 33.4549 205.398 32.0151C205.398 30.5753 206.569 29.3896 207.991 29.3896L236.846 29.3896C238.268 29.3896 239.439 30.5471 239.439 32.0151Z" fill="#FFC627"/>
<path d="M208.019 42.0088C208.465 43.7027 209.999 44.8601 211.755 44.8037C219.45 44.5496 239.578 43.985 239.578 43.985C240.833 43.985 242.032 43.618 243.091 42.9404V36.3908L208.772 36.6167C207.629 36.6167 206.82 37.7459 207.127 38.8469C207.545 40.3432 208.019 42.0088 208.019 42.0088Z" fill="#1E1E1E"/>
<path d="M208.02 22.0212C208.466 20.3273 209.999 19.1698 211.755 19.2263C219.45 19.4804 239.579 20.045 239.579 20.045C240.833 20.045 242.032 20.412 243.092 21.0895V27.6392L208.772 27.3851C207.629 27.3851 206.821 26.2558 207.128 25.1548C207.546 23.6868 208.02 22.0212 208.02 22.0212Z" fill="#1E1E1E"/>
<path d="M246.269 28.3164L292.938 28.3164V22.6137C292.938 18.492 289.621 15.1325 285.55 15.1325L257.727 15.1325C252.96 15.1325 248.806 18.4073 247.607 23.0654L246.269 28.3164Z" fill="#1B5B64"/>
<path d="M246.268 35.6857L292.938 35.6857V41.3884C292.938 45.5101 289.62 48.8696 285.55 48.8696L257.727 48.8696C252.959 48.8696 248.805 45.5948 247.607 40.9367L246.268 35.6857Z" fill="#1B5B64"/>
<path d="M300.326 29.0799V34.9238C300.326 36.4483 299.099 37.6904 297.594 37.6904L246.966 37.6904C245.46 37.6904 244.234 36.4483 244.234 34.9238V29.0799C244.234 27.5554 245.46 26.3133 246.966 26.3133L297.594 26.3133C299.099 26.3133 300.326 27.5554 300.326 29.0799Z" fill="#1B5B64"/>
<path d="M229.291 26.4807C226.782 27.1018 225.025 29.3885 225.025 32.014C225.025 34.6395 226.782 36.9262 229.291 37.5473C232.274 38.2813 236.26 39.8058 239.299 42.7983C240.693 44.1816 242.589 44.9438 244.541 44.9438H246.297C249.224 44.9438 251.845 43.0524 252.737 40.2292C253.35 38.2813 253.824 35.6276 253.824 32.0422C253.824 28.4569 253.35 25.8031 252.737 23.8552C251.845 21.0321 249.224 19.1406 246.297 19.1406H244.541C242.589 19.1406 240.693 19.9028 239.299 21.2862C236.26 24.2222 232.274 25.7467 229.291 26.4807Z" fill="#1E1E1E"/>
<path d="M230.238 27.1596C228.036 27.696 226.503 29.7286 226.503 32.0153C226.503 34.3021 228.036 36.3347 230.238 36.8711C232.859 37.5204 236.372 38.8473 239.02 41.4728C240.247 42.6867 241.92 43.3643 243.648 43.3643H245.21C247.774 43.3643 250.088 41.6986 250.869 39.2143C251.399 37.5204 251.817 35.1772 251.817 32.0153C251.817 28.8534 251.399 26.5385 250.869 24.8164C250.088 22.3321 247.774 20.6664 245.21 20.6664H243.648C241.92 20.6664 240.275 21.344 239.02 22.5579C236.372 25.1834 232.887 26.482 230.238 27.1596Z" fill="#282828"/>
<path d="M249.699 32.0141C249.699 23.579 244.955 16.741 239.105 16.741C233.254 16.741 228.51 23.579 228.51 32.0141C228.51 40.4491 233.254 47.2871 239.105 47.2871C244.955 47.2871 249.699 40.4491 249.699 32.0141Z" fill="#2B2B2B"/>
<path d="M247.245 34.6392C247.775 32.4654 249.392 34.8086 249.336 36.0508C249.587 34.7521 249.699 33.3971 249.699 32.0137C249.699 23.5726 244.959 16.7407 239.105 16.7407C238.213 16.7407 237.348 16.9101 236.54 17.1924L236.066 29.0212C236.066 29.0212 244.987 31.2233 247.245 34.6392Z" fill="#393939"/>
<path d="M239.104 47.288L219.227 51.0145C215.24 51.7485 211.365 49.3207 210.249 45.3683C210.222 45.3118 210.222 45.2272 210.194 45.1707C208.939 40.5408 212.006 35.8544 216.717 35.2333C221.624 34.5558 227.339 33.85 231.047 33.3701C233.25 33.0878 235.341 34.4711 235.982 36.6449L239.104 47.288Z" fill="#2B2B2B"/>
<path d="M239.104 16.7136L219.226 12.9871C215.24 12.253 211.365 14.6809 210.249 18.6333C210.221 18.6897 210.221 18.7744 210.194 18.8309C208.939 23.4608 212.006 28.1472 216.717 28.7683C221.624 29.4458 227.339 30.1516 231.047 30.6315C233.25 30.9138 235.34 29.5305 235.982 27.3567L239.104 16.7136Z" fill="#2B2B2B"/>
<path d="M203.558 51.3251L206.709 59.9074C206.932 60.5002 206.625 61.1495 206.04 61.3754L203.921 62.1659C203.335 62.3917 202.694 62.0812 202.471 61.4883L199.321 52.906C199.098 52.3132 199.405 51.6639 199.99 51.438L202.081 50.6476C202.666 50.4499 203.335 50.7322 203.558 51.3251Z" fill="#1E1E1E"/>
<path d="M198.261 13.3543L193.745 25.0138H190.204V39.0164H193.745L198.261 50.6759C198.596 51.5511 199.572 52.031 200.464 51.7487L201.579 51.4099C202.471 51.1276 203.001 50.2242 202.806 49.2926L200.408 37.746C202.443 36.4756 203.753 34.3865 203.753 32.0151C203.753 29.6437 202.443 27.5546 200.408 26.2842L202.806 14.7376C203.001 13.806 202.471 12.9026 201.579 12.6203L200.464 12.2815C199.572 11.9992 198.596 12.4509 198.261 13.3543Z" fill="#5792B7"/>
<path d="M201.579 12.6206L200.631 12.31L195.836 26.7079C195.836 26.7079 198.401 26.8491 199.795 30.9708C200.938 34.3303 198.206 37.8874 198.206 37.8874L201.551 51.4102C202.443 51.1278 202.973 50.2244 202.778 49.2928L200.38 37.7463C202.415 36.4759 203.726 34.3868 203.726 32.0154C203.726 29.6439 202.415 27.5548 200.38 26.2844L202.778 14.7379C203.001 13.8063 202.471 12.9029 201.579 12.6206Z" fill="#1B5B64"/>
<path d="M204.562 49.744L204.925 50.7039C204.98 50.8733 204.897 51.0709 204.729 51.1274L198.317 53.527C198.15 53.5835 197.955 53.4988 197.899 53.3294L197.537 52.3695C197.481 52.2001 197.564 52.0025 197.732 51.9461L204.144 49.5464C204.311 49.4617 204.478 49.5464 204.562 49.744Z" fill="#383838"/>
<path d="M203.559 12.6763L206.709 4.09404C206.932 3.50118 206.625 2.85187 206.04 2.62602L203.949 1.83555C203.363 1.6097 202.722 1.92024 202.499 2.51309L199.349 11.0954C199.126 11.6882 199.432 12.3375 200.018 12.5634L202.109 13.3538C202.666 13.5797 203.336 13.2691 203.559 12.6763Z" fill="#1E1E1E"/>
<path d="M204.563 14.2859L204.925 13.3261C204.981 13.1567 204.897 12.9591 204.73 12.9026L198.318 10.503C198.15 10.4465 197.955 10.5312 197.9 10.7006L197.537 11.6604C197.481 11.8298 197.565 12.0275 197.732 12.0839L204.144 14.4836C204.312 14.54 204.479 14.4553 204.563 14.2859Z" fill="#383838"/>
<path d="M287.474 28.7401V35.2897C287.474 39.2421 284.296 42.4604 280.393 42.4604H264.168C260.265 42.4604 257.086 39.2421 257.086 35.2897V28.7401C257.086 24.7877 260.265 21.5694 264.168 21.5694L280.393 21.5694C284.296 21.5412 287.474 24.7595 287.474 28.7401ZM258.592 35.2897C258.592 38.4234 261.101 40.936 264.168 40.936H280.393C283.488 40.936 285.969 38.3952 285.969 35.2897V28.7401C285.969 25.6065 283.46 23.0939 280.393 23.0939L264.168 23.0939C261.073 23.0939 258.592 25.6347 258.592 28.7401V35.2897Z" fill="#C9C9C9"/>
<path d="M285.495 28.7392V35.2888C285.495 38.1401 283.209 40.4551 280.393 40.4551H264.168C261.352 40.4551 259.066 38.1401 259.066 35.2888V28.7392C259.066 25.8878 261.352 23.5729 264.168 23.5729L280.393 23.5729C283.209 23.5729 285.495 25.8878 285.495 28.7392Z" fill="#1E1E1E"/>
<path d="M282.316 28.966V35.0639C282.316 37.52 280.337 39.5244 277.911 39.5244H264.613C262.187 39.5244 260.208 37.52 260.208 35.0639V28.966C260.208 26.5099 262.187 24.5054 264.613 24.5054H277.911C280.365 24.5054 282.316 26.5099 282.316 28.966Z" fill="#282828"/>
<path d="M190.233 5.73114C190.233 3.92435 191.264 2.68217 192.017 2.00463C192.296 1.75055 192.77 1.94817 192.77 2.3434V5.73114V9.11887C192.77 9.51411 192.324 9.71172 192.017 9.45764C191.292 8.80833 190.233 7.53793 190.233 5.73114Z" fill="#969696"/>
<path d="M193.661 9.76878V1.75113C193.661 1.46882 193.438 1.21474 193.131 1.21474C192.853 1.21474 192.602 1.44059 192.602 1.75113V9.76878C192.602 10.0511 192.825 10.3052 193.131 10.3052C193.438 10.2769 193.661 10.0511 193.661 9.76878Z" fill="#AFAFAF"/>
<path d="M202.387 16.3467C202.387 16.4031 202.387 16.4314 202.36 16.4878C202.276 16.7137 202.053 16.8266 201.83 16.7419L197.258 15.048C197.23 15.048 197.23 15.048 197.202 15.0198L189.925 11.3497C189.117 10.9263 188.587 10.1076 188.587 9.17595V7.70793C188.587 6.38107 189.675 5.28005 190.985 5.28005H191.292C191.515 5.28005 191.71 5.47767 191.71 5.70352C191.71 5.92937 191.515 6.12699 191.292 6.12699H190.985C190.121 6.12699 189.424 6.83277 189.424 7.70793V9.17595C189.424 9.76881 189.758 10.3334 190.288 10.5875L197.536 14.2576L202.109 15.9232C202.276 16.0361 202.387 16.1773 202.387 16.3467Z" fill="#969696"/>
<path d="M263.415 22.3034V41.6982H264.92V22.3034H263.415Z" fill="#C9C9C9"/>
<path d="M189.312 38.7334C189.312 38.7334 186.274 37.4912 186.274 32.0144C186.274 26.5375 189.312 25.4648 189.312 25.4648V38.7334Z" fill="#FFF4E3"/>
<path d="M192.49 25.211V38.7902C192.49 39.2419 192.128 39.6089 191.682 39.6089H189.814C189.368 39.6089 189.006 39.2419 189.006 38.7902V25.211C189.006 24.7593 189.368 24.3923 189.814 24.3923H191.682C192.128 24.3923 192.49 24.7593 192.49 25.211Z" fill="#D3D3D3"/>
<path d="M288.505 21.4286V19.1419C288.505 18.0409 287.641 17.1657 286.554 17.1657C285.467 17.1657 284.602 18.0409 284.602 19.1419V21.4286C284.602 22.5296 285.467 23.4048 286.554 23.4048C287.641 23.4048 288.505 22.5296 288.505 21.4286Z" fill="#B2B2B2"/>
<path d="M289.816 20.3839V20.1863C289.816 18.8594 288.757 17.7866 287.447 17.7866H287.168C286.248 17.7866 285.523 18.5489 285.523 19.4523V21.0897C285.523 22.0213 286.276 22.7553 287.168 22.7553H287.447C288.757 22.7835 289.816 21.7108 289.816 20.3839Z" fill="#FF772C"/>
<path d="M288.506 42.573V44.8598C288.506 45.9608 287.641 46.8359 286.554 46.8359C285.467 46.8359 284.603 45.9608 284.603 44.8598V42.573C284.603 41.472 285.467 40.5969 286.554 40.5969C287.641 40.5969 288.506 41.5002 288.506 42.573Z" fill="#B2B2B2"/>
<path d="M289.816 43.6171V43.8147C289.816 45.1416 288.757 46.2144 287.446 46.2144H287.168C286.248 46.2144 285.523 45.4521 285.523 44.5487V42.9113C285.523 41.9797 286.275 41.2457 287.168 41.2457H287.446C288.757 41.2174 289.816 42.2902 289.816 43.6171Z" fill="#FF772C"/>
<path d="M288.506 44.0412V44.1541C288.506 44.8881 287.92 45.481 287.195 45.481H287.056C286.554 45.481 286.136 45.0575 286.136 44.5493V43.6459C286.136 43.1378 286.554 42.7143 287.056 42.7143H287.195C287.92 42.7143 288.506 43.3072 288.506 44.0412Z" fill="#FF9F40"/>
<path d="M288.505 20.694V20.8069C288.505 21.5409 287.92 22.1338 287.195 22.1338H287.056C286.554 22.1338 286.135 21.7103 286.135 21.2022V20.2988C286.135 19.7906 286.554 19.3671 287.056 19.3671H287.195C287.92 19.3671 288.505 19.96 288.505 20.694Z" fill="#FF9F40"/>
<path d="M203.586 48.9812C203.586 49.3199 203.363 49.6587 203.029 49.7716L198.54 51.3808L197.453 51.8043C197.174 51.9172 197.035 52.2277 197.146 52.5383L199.878 59.7937C199.934 59.9348 200.046 60.0478 200.185 60.1325C201.244 60.6124 201.746 61.8546 201.384 62.9556L201.217 63.4355C201.077 63.8872 200.603 64.113 200.157 63.9719C199.711 63.8307 199.488 63.3508 199.627 62.8991L199.795 62.4192C199.906 62.1369 199.767 61.7981 199.488 61.6852C198.958 61.4311 198.54 60.9794 198.317 60.4148L195.585 53.1594C195.139 52.0019 195.724 50.7033 196.867 50.2516L197.983 49.8281C197.983 49.8281 197.983 49.8281 198.011 49.8281L202.499 48.2189C202.945 48.0495 203.419 48.3036 203.558 48.7271C203.558 48.7835 203.586 48.8965 203.586 48.9812Z" fill="#0C0F11"/>
<path d="M203.587 15.0195C203.587 15.1042 203.559 15.2171 203.531 15.3018C203.364 15.7535 202.89 15.9794 202.472 15.81L197.983 14.2008C197.983 14.2008 197.983 14.2008 197.955 14.2008L196.84 13.7773C195.697 13.3256 195.112 12.027 195.558 10.8695L198.29 3.61413C198.513 3.04951 198.931 2.59781 199.461 2.34373C199.74 2.20257 199.879 1.89203 199.767 1.60972L199.6 1.12979C199.461 0.678092 199.684 0.198162 200.13 0.0570068C200.576 -0.0841494 201.05 0.141698 201.189 0.593396L201.357 1.07333C201.719 2.20257 201.217 3.41651 200.158 3.89644C200.018 3.9529 199.907 4.09406 199.851 4.23521L197.119 11.4906C197.007 11.7729 197.147 12.1117 197.426 12.2246L198.513 12.6481L203.001 14.2573C203.364 14.3702 203.587 14.6807 203.587 15.0195Z" fill="#0C0F11"/>
<path d="M208.353 6.04264C208.353 6.04264 203.586 1.41273 202.192 2.57021C200.798 3.72768 198.735 7.56712 199.153 8.38582C199.571 9.20452 203.196 11.1807 205.705 10.7008C207.573 8.44228 208.353 6.04264 208.353 6.04264Z" fill="#C68F7C"/>
<path d="M219.672 49.6589C220.006 50.1106 220.369 50.5341 220.731 50.9011L205.955 53.8371C205.872 53.7242 205.788 53.6395 205.705 53.5266C203.195 53.0466 199.571 55.0228 199.153 55.8415C198.735 56.6602 200.798 60.4997 202.192 61.6571C203.084 62.3911 205.37 60.7537 206.875 59.4833C211.364 59.6527 225.22 59.9068 230.628 56.9143C237.124 53.3007 233.834 42.4882 227.757 42.3188C221.679 42.1494 216.912 46.1018 219.672 49.6589Z" fill="#C68F7C"/>
<path d="M205.455 4.79974C205.455 4.79974 224.133 3.69873 230.629 7.31231C237.125 10.9259 233.835 21.7384 227.758 21.9078C221.68 22.0772 216.913 18.1531 219.673 14.5959C222.405 11.0106 225.639 9.42964 225.639 9.42964L225.193 14.2289L204.451 10.1072L205.455 4.79974Z" fill="#C68F7C"/>
<path d="M220.397 13.2983C219.394 14.5404 218.753 15.6132 218.39 16.5731C215.937 19.8761 214.32 25.607 214.32 32.1284C214.32 38.6216 215.937 44.3243 218.39 47.6556C218.753 48.6437 219.394 49.7447 220.425 50.9868C220.425 50.9868 223.715 57.8752 231.242 57.0848C234.421 56.6048 235.842 51.6644 234.727 47.5144L240.665 45.7641C244.429 45.0301 247.384 39.2145 247.384 32.1284C247.384 25.0424 244.429 19.2268 240.665 18.4928L234.727 16.7425C235.842 12.5925 234.393 7.68027 231.242 7.20034C223.687 6.40986 220.397 13.2983 220.397 13.2983Z" fill="#005893"/>
<path d="M218.919 25.7769C218.919 25.7769 219.003 25.6922 219.142 25.5228C219.003 25.6639 218.919 25.7769 218.919 25.7769Z" fill="#00527F"/>
<path d="M195.529 24.0247C194.554 25.3516 193.02 28.09 193.02 32.1271C193.02 36.1641 194.554 38.9026 195.529 40.2294C195.948 40.794 196.617 41.1328 197.314 41.1328H200.715L197.425 32.0988L200.715 23.0649H197.314C196.617 23.1213 195.948 23.4601 195.529 24.0247Z" fill="#121619"/>
<path d="M225.722 32.1272C225.722 35.2326 223.241 37.7734 220.146 37.7734H211.838C208.772 37.7734 206.262 35.2609 206.262 32.1272C206.262 29.0218 208.744 26.481 211.838 26.481H220.146C223.213 26.5092 225.722 29.0218 225.722 32.1272Z" fill="#C68F7C"/>
<path d="M221.596 26.7068C221.15 26.5939 220.648 26.5092 220.147 26.5092H215.63L216.327 37.7734H219.701C219.673 37.7734 223.771 33.7082 221.596 26.7068Z" fill="#C68F7C"/>
<path d="M220.788 32.1273C220.788 25.0643 215.134 19.3386 208.159 19.3386C201.184 19.3386 195.53 25.0643 195.53 32.1273C195.53 39.1903 201.184 44.916 208.159 44.916C215.134 44.916 220.788 39.1903 220.788 32.1273Z" fill="#5792B7"/>
<path d="M300.382 33.3989V30.5758C300.382 29.2207 299.295 28.1196 297.956 28.1196C296.618 28.1196 295.531 29.2207 295.531 30.5758V33.3989C295.531 34.754 296.618 35.855 297.956 35.855C299.295 35.855 300.382 34.754 300.382 33.3989Z" fill="#B2B2B2"/>
<path d="M302 32.1266V31.9007C302 30.2633 300.689 28.9364 299.072 28.9364H298.738C297.623 28.9364 296.703 29.8681 296.703 30.9973V33.0299C296.703 34.1592 297.623 35.0908 298.738 35.0908H299.072C300.689 35.0908 302 33.764 302 32.1266Z" fill="#FF4E00"/>
<path d="M300.689 32.4094V32.2682C300.689 31.2237 299.853 30.3767 298.821 30.3767H298.626C297.901 30.3767 297.344 30.9696 297.344 31.6754V32.9458C297.344 33.6798 297.929 34.2444 298.626 34.2444H298.821C299.853 34.3009 300.689 33.4539 300.689 32.4094Z" fill="#FF772C"/>
</g>
<defs>
<clipPath id="clip0_2006_9105">
<rect width="174" height="302" fill="white" transform="matrix(0 1 1 0 0 67)"/>
</clipPath>
<clipPath id="clip1_2006_9105">
<rect width="64" height="153" fill="white" transform="matrix(0 -1 1 0 149 64)"/>
</clipPath>
</defs>
</svg>
