<svg width="375" height="345" viewBox="0 0 375 345" fill="none" xmlns="http://www.w3.org/2000/svg">
<path d="M423.02 341.704H354.127V398.68H423.02V341.704Z" fill="#1B5B64"/>
<path opacity="0.3" d="M423.02 341.704H354.127V398.68H423.02V341.704Z" fill="white"/>
<path d="M371.109 341.705H317.714V398.681H371.109V341.705Z" fill="#1B5B64"/>
<path opacity="0.1" d="M371.109 341.705H317.714V398.681H371.109V341.705Z" fill="white"/>
<path opacity="0.3" d="M351.968 341.704H336.86V359.435H351.968V341.704Z" fill="white"/>
<path d="M215.059 0H30.8774C19.5709 0 10.4052 9.16572 10.4052 20.4722V404.722C10.4052 416.028 19.5709 425.194 30.8774 425.194H215.059C226.365 425.194 235.531 416.028 235.531 404.722V20.4722C235.531 9.16572 226.365 0 215.059 0Z" fill="#C5D8E2"/>
<path d="M220.984 28.3467H24.9694V370.314H220.984V28.3467Z" fill="#1B5B64"/>
<path d="M75.2157 241.571L80.7041 244.741L79.2477 238.766L84.0967 234.747L77.7113 234.228L75.2157 228.594L72.7202 234.228L66.3348 234.747L71.1838 238.766L69.7273 244.741L75.2157 241.571Z" fill="white"/>
<path d="M99.4354 241.57L104.924 244.74L103.467 238.766L108.316 234.746L101.931 234.228L99.4354 228.593L96.9399 234.228L90.5545 234.746L95.4035 238.766L93.947 244.74L99.4354 241.57Z" fill="white"/>
<path d="M123.664 241.57L129.152 244.74L127.696 238.766L132.545 234.746L126.159 234.228L123.664 228.593L121.168 234.228L114.783 234.746L119.632 238.766L118.175 244.74L123.664 241.57Z" fill="white"/>
<path d="M147.887 241.57L153.376 244.74L151.919 238.766L156.768 234.746L150.383 234.228L147.887 228.593L145.392 234.228L139.006 234.746L143.855 238.766L142.399 244.74L147.887 241.57Z" fill="white"/>
<path d="M172.095 241.57L177.583 244.74L176.127 238.766L180.976 234.746L174.59 234.228L172.095 228.593L169.599 234.228L163.214 234.746L168.063 238.766L166.606 244.74L172.095 241.57Z" stroke="white" stroke-width="0.4"/>
<path opacity="0.3" d="M220.984 336.413H24.9694V370.301H220.984V336.413Z" fill="white"/>
<path opacity="0.1" d="M220.984 169.06C171.155 218.616 78.8795 311.315 24.9694 365.593V370.37H134.496L220.984 283.895V169.06Z" fill="white"/>
<path opacity="0.1" d="M24.9694 200.313L196.936 28.3467H116.521C95.23 49.474 58.8577 85.9145 24.9694 119.926V200.313Z" fill="white"/>
<path opacity="0.1" d="M24.9694 272.199L220.984 76.1844V34.2437L24.9694 230.245V272.199Z" fill="white"/>
<path opacity="0.2" d="M220.984 28.3467H24.9694V43.7691H220.984V28.3467Z" fill="black"/>
<g opacity="0.6">
<path opacity="0.6" d="M46.1594 39.5928H49.121V35.6348H46.1594V39.5928Z" fill="white"/>
<path opacity="0.6" d="M41.3344 39.5928H44.2961V34.3246H41.3344V39.5928Z" fill="white"/>
<path opacity="0.6" d="M36.5001 39.5928H39.4618V33.0007H36.5001V39.5928Z" fill="white"/>
<path opacity="0.6" d="M31.6658 39.5928H34.6274V31.6769H31.6658V39.5928Z" fill="white"/>
</g>
<path opacity="0.6" d="M200.183 34.1895H198.422V38.1474H200.183V34.1895Z" fill="white"/>
<path opacity="0.6" d="M201.399 39.5942H215.415V32.7565H201.399V39.5942Z" fill="white"/>
<path d="M179.115 261.349H66.8459C63.4506 261.349 60.1943 262.698 57.7935 265.099C55.3927 267.5 54.0439 270.756 54.0439 274.151C54.0439 277.546 55.3927 280.803 57.7935 283.203C60.1943 285.604 63.4506 286.953 66.8459 286.953H179.115C182.511 286.953 185.767 285.604 188.168 283.203C190.569 280.803 191.917 277.546 191.917 274.151C191.917 270.756 190.569 267.5 188.168 265.099C185.767 262.698 182.511 261.349 179.115 261.349Z" fill="white"/>
<path opacity="0.3" d="M235.543 121.305L194.422 127.16L205.163 203.562L235.543 200.478V121.305Z" fill="#263238"/>
<path opacity="0.7" d="M124.874 216.883C166.678 216.883 200.566 182.994 200.566 141.191C200.566 99.3868 166.678 65.498 124.874 65.498C83.07 65.498 49.1813 99.3868 49.1813 141.191C49.1813 182.994 83.07 216.883 124.874 216.883Z" fill="white"/>
<path d="M152.016 94.9097C152.016 94.9097 167.48 117.784 176.16 118.712C184.84 119.64 218.797 90.4331 218.797 90.4331L224.556 95.4147C224.556 95.4147 192.251 130.9 178.767 132.974C165.282 135.049 139.651 108.326 139.651 108.326L152.016 94.9097Z" fill="#E4897B"/>
<path d="M148.331 96.6152C148.331 96.6152 153.79 91.2651 161.296 100.56C168.803 109.854 171.887 111.751 171.887 111.751L152.78 130.408C152.78 130.408 141.548 101.583 148.331 96.6152Z" fill="#1B5B64"/>
<path d="M216.109 88.3167C216.109 88.3167 216.777 79.732 218.77 79.1861C220.763 78.6402 220.053 84.9865 220.053 84.9865C220.053 84.9865 230.562 78.5719 232.678 79.1451C234.793 79.7184 234.452 83.8674 234.042 84.9865C230.835 94.5402 219.371 98.4982 219.371 98.4982L214.744 94.1308L216.109 88.3167Z" fill="#E4897B"/>
<path d="M137.301 72.1982C137.301 72.1982 147.851 89.777 144.617 100.859C141.382 111.942 124.745 101.978 124.745 101.978L124.95 80.1414L137.301 72.1982Z" fill="#263238"/>
<path d="M109.012 41.8999C109.012 41.8999 93.4123 49.8022 99.5403 77.6034C109.804 124.212 124.953 104.9 124.953 104.9C124.953 104.9 124.284 86.5293 118.129 77.6034C111.974 68.6775 113.257 55.9438 113.257 55.9438L109.012 41.8999Z" fill="#263238"/>
<path d="M154.263 165.033L107.49 169.128C107.037 157.534 105.367 146.02 102.509 134.776C101.39 130.299 99.9977 125.29 98.1961 119.517C97.2271 116.419 96.1625 113.102 94.9751 109.54C94.088 106.81 93.119 103.958 92.0544 100.914C98.4075 98.8834 104.898 97.3098 111.476 96.2059C118.41 94.964 125.425 94.2251 132.467 93.9949C141.57 93.913 152.024 94.9366 152.024 94.9366C152.024 94.9366 153.512 95.2915 154.454 104.941C155.3 113.948 156.132 132.087 154.263 165.033Z" fill="#1B5B64"/>
<path opacity="0.2" d="M154.263 165.033L107.49 169.128C107.037 157.534 105.367 146.02 102.509 134.776C101.39 130.299 99.9977 125.29 98.1961 119.517C97.2271 116.419 96.1625 113.102 94.9751 109.54C94.088 106.81 93.119 103.958 92.0544 100.914C98.4075 98.8834 104.898 97.3098 111.476 96.2059C118.41 94.964 125.425 94.2251 132.467 93.9949C141.57 93.913 152.024 94.9366 152.024 94.9366C152.024 94.9366 153.512 95.2915 154.454 104.941C155.3 113.948 156.132 132.087 154.263 165.033Z" fill="white"/>
<path opacity="0.2" d="M107.28 165.566C114.772 162.645 139.476 150.553 139.476 150.553L106.72 157.95C106.87 160.434 107.075 162.945 107.28 165.566Z" fill="black"/>
<path d="M128.612 104.285C117.079 102.811 113.599 97.8979 113.599 97.8979C120.915 90.9919 114.841 79.0361 114.841 79.0361L128.708 81.6293C128.39 83.5611 128.213 85.5133 128.175 87.4707C128.066 95.8916 131.874 95.9735 131.874 95.9735C134.317 100.532 128.612 104.285 128.612 104.285Z" fill="#E4897B"/>
<path opacity="0.2" d="M128.722 81.6293C128.404 83.5611 128.226 85.5133 128.189 87.4707C118.813 87.4707 114.855 79.0361 114.855 79.0361L128.722 81.6293Z" fill="black"/>
<path d="M122.501 42.7868C134.566 42.118 137.295 47.9048 138.878 60.2837C140.844 75.7607 138.059 87.4844 122.801 85.0005C106.055 82.2709 101.36 55.7525 111.432 45.612C113.793 43.2099 118.665 42.9779 122.501 42.7868Z" fill="#E4897B"/>
<path d="M131.08 61.853C132.143 63.6005 133.412 65.2136 134.861 66.6572C134.538 67.1756 134.077 67.5943 133.53 67.8666C132.983 68.1388 132.371 68.254 131.763 68.1994L131.08 61.853Z" fill="#DE5753"/>
<path d="M123.782 60.4618C124.291 60.2037 124.703 59.787 124.955 59.2744L122.867 60.2844C122.563 60.4615 122.321 60.7284 122.174 61.0485C122.028 61.3686 121.984 61.7262 122.048 62.0723C122.117 63.0686 122.717 63.8192 123.413 63.7783C124.109 63.7374 124.546 62.8775 124.478 61.8949C124.444 61.344 124.194 60.8287 123.782 60.4618Z" fill="#263238"/>
<path d="M135.489 59.3558C135.999 59.0978 136.411 58.6811 136.663 58.1685L134.589 59.1784C134.283 59.3588 134.04 59.6277 133.892 59.9495C133.743 60.2713 133.696 60.6307 133.756 60.98C133.838 61.9763 134.438 62.7269 135.121 62.6723C135.803 62.6177 136.254 61.7852 136.172 60.7889C136.163 60.5159 136.098 60.2476 135.981 60.0009C135.863 59.7543 135.696 59.5347 135.489 59.3558Z" fill="#263238"/>
<path d="M123.77 54.8927C122.81 54.8315 121.849 54.9902 120.96 55.3568C120.07 55.7234 119.276 56.2882 118.639 57.0082" stroke="#263238" stroke-width="0.707336" stroke-linecap="round" stroke-linejoin="round"/>
<path d="M131.094 54.4021C131.837 53.9834 132.665 53.7378 133.515 53.6834C134.366 53.629 135.218 53.7674 136.008 54.0882" stroke="#263238" stroke-width="0.707336" stroke-linecap="round" stroke-linejoin="round"/>
<path d="M102.925 99.1676C102.925 99.1676 116.464 110.154 129.061 109.977C141.658 109.8 146.094 95.6328 146.094 95.6328C146.094 95.6328 126.55 89.8459 102.925 99.1676Z" fill="#E4897B"/>
<path d="M83.0139 126.6C83.0139 126.6 78.7557 151.713 79.2607 158.864C79.7656 166.016 90.575 166.234 96.662 165.511C103.664 164.678 140.172 150.239 140.172 150.239L138.48 143.019C138.48 143.019 109.901 150.798 97.7266 152.163C97.1578 152.221 96.5831 152.149 96.0466 151.951C95.5101 151.753 95.0259 151.435 94.6309 151.022C94.2358 150.609 93.9405 150.11 93.7675 149.565C93.5944 149.02 93.5481 148.443 93.6321 147.878L96.4573 129.234L83.0139 126.6Z" fill="#E4897B"/>
<path d="M92.0498 100.86C92.0498 100.86 99.5153 99.2082 100.962 111.068C101.838 118.251 100.899 125.538 98.2324 132.264L79.3161 128.852C79.3161 128.852 83.6699 101.474 92.0498 100.86Z" fill="#1B5B64"/>
<path d="M147.806 135.785C147.34 135.502 146.789 135.391 146.25 135.471C144.012 136.045 137.215 142.773 136.819 143.66L138.566 150.034C138.566 150.034 142.142 151.945 143.875 151.399C145.608 150.853 154.398 144.384 154.412 142.828C154.422 142.741 154.422 142.654 154.412 142.568C154.725 142.336 154.985 142.145 155.162 142.036C156.65 141.108 151.15 137 147.806 135.785Z" fill="#E4897B"/>
<path d="M121.789 42.8276C121.789 42.8276 123.331 57.9498 110.72 58.4957C98.1094 59.0416 108.646 44.9431 108.646 44.9431L121.789 42.8276Z" fill="#263238"/>
<path d="M119.086 38.1605C98.3549 38.8156 100.075 69.1417 111.28 77.6036C111.28 77.6036 105.82 70.2609 108.987 63.8735C108.987 63.8735 113.081 53.9923 111.716 46.3903C114.921 44.9993 118.325 44.1197 121.802 43.7835C124.136 46.6223 129.991 55.2479 137.662 55.0705C138.104 56.4079 138.447 57.7765 138.685 59.1649C138.685 59.1649 139.845 37.519 119.086 38.1605Z" fill="#263238"/>
<path d="M134.228 74.0145C133.055 74.6385 131.751 74.9762 130.423 74.9999C129.094 75.0236 127.779 74.7327 126.585 74.1509C126.551 74.1325 126.522 74.1075 126.498 74.0775C126.475 74.0475 126.457 74.013 126.447 73.9761C126.437 73.9392 126.434 73.9006 126.439 73.8627C126.444 73.8248 126.456 73.7882 126.476 73.7552C126.491 73.7225 126.514 73.6935 126.541 73.6701C126.569 73.6466 126.601 73.6292 126.636 73.6189C126.671 73.6086 126.707 73.6057 126.743 73.6104C126.779 73.615 126.813 73.6271 126.844 73.646C127.956 74.1783 129.178 74.442 130.411 74.4159C131.643 74.3898 132.853 74.0747 133.941 73.4958C134.007 73.4611 134.083 73.4531 134.154 73.4734C134.226 73.4938 134.286 73.541 134.323 73.605C134.358 73.6684 134.365 73.7427 134.345 73.8117C134.324 73.8808 134.277 73.9389 134.214 73.9735L134.228 74.0145Z" fill="#263238"/>
<path d="M111.101 66.3171C110.907 64.9277 110.171 63.6717 109.053 62.8247C107.935 61.9778 106.526 61.6091 105.136 61.7996C101.424 62.4001 100.059 70.1795 109.463 71.5171C110.8 71.7081 111.483 70.357 111.101 66.3171Z" fill="#E4897B"/>
<path d="M109.691 121.468L122.247 119.694C122.247 119.694 126.341 133.083 118.889 134.516C110.742 136.099 109.691 121.468 109.691 121.468Z" fill="#1B5B64"/>
<path d="M156.999 193.612C156.371 187.416 155.388 178.982 154.132 172.349L154.255 165.033L107.483 169.128L107.06 175.952C105.968 177.972 101.191 187.976 99.0349 212.447C108.762 215.975 119.108 217.474 129.437 216.849C139.765 216.225 149.856 213.491 159.087 208.816L156.999 193.612Z" fill="#263238"/>
<path d="M275.613 171.025L251.825 177.058C249.987 175.921 247.805 175.476 245.669 175.802C242.298 176.43 233.864 183.322 234.191 184.332C234.519 185.342 244.687 190.024 246.147 189.641C251.388 188.277 256.793 182.176 256.793 182.176L278.056 177.795L275.613 171.025Z" fill="#E4897B"/>
<path d="M335.197 85.4791C330.365 90.6245 317.563 90.1878 317.563 90.1878C317.563 90.1878 313.346 90.5563 312.295 86.9805C316.922 85.834 317.632 82.5039 318.355 79.6241C318.711 77.8447 318.711 76.0125 318.355 74.2331C318.206 73.2295 317.996 72.236 317.727 71.2578L332.59 58.333C331.211 66.1807 329.737 80.2929 335.197 85.4791Z" fill="#E4897B"/>
<path opacity="0.2" d="M329.623 66.0439C329.746 75.5976 322.171 78.7913 318.404 79.6239C318.76 77.8445 318.76 76.0122 318.404 74.2328L329.623 66.0439Z" fill="black"/>
<path d="M330.843 68.1458C329.398 70.703 327.153 72.7146 324.452 73.8711C321.752 75.0276 318.747 75.265 315.899 74.5468C312.194 73.6968 308.956 71.4599 306.85 68.2959C306.548 67.8592 306.274 67.4033 306.031 66.9311C301.459 58.2236 298.989 42.5692 308.051 35.9089C310.044 34.4137 312.388 33.4559 314.857 33.1274C317.327 32.7989 319.84 33.1107 322.154 34.0329C324.469 34.9552 326.507 36.4569 328.074 38.3938C329.641 40.3308 330.684 42.6381 331.103 45.0941C333.068 55.5349 334.733 61.5811 330.843 68.1458Z" fill="#E4897B"/>
<path d="M315.591 52.6003C315.735 52.9185 315.751 53.2798 315.637 53.6098C315.523 53.9399 315.287 54.2136 314.977 54.3746C314.431 54.5111 313.816 53.9378 313.612 53.1053C313.407 52.2727 313.68 51.4675 314.226 51.331C314.772 51.1945 315.372 51.7541 315.591 52.6003Z" fill="#263238"/>
<path d="M306.376 54.5384C306.649 55.3572 306.308 56.1761 305.776 56.3126C305.244 56.4491 304.602 55.8759 304.411 55.0433C304.22 54.2108 304.479 53.4055 305.025 53.2691C305.571 53.1326 306.172 53.7468 306.376 54.5384Z" fill="#263238"/>
<path d="M309.689 54.7979C309.427 57.5411 308.78 60.2336 307.765 62.7957C309.129 63.3416 311.04 62.4818 312.337 61.7721L309.689 54.7979Z" fill="#DE5753"/>
<path d="M318.314 48.1242C318.228 48.1579 318.135 48.1681 318.044 48.1537C317.952 48.1393 317.867 48.1009 317.795 48.0423C317.306 47.6324 316.729 47.3425 316.108 47.1956C315.487 47.0487 314.84 47.0488 314.22 47.1961C314.155 47.2241 314.086 47.2384 314.015 47.238C313.945 47.2376 313.876 47.2226 313.811 47.1938C313.747 47.1651 313.69 47.1233 313.643 47.0711C313.596 47.0189 313.56 46.9574 313.538 46.8907C313.516 46.8239 313.509 46.7533 313.516 46.6834C313.522 46.6135 313.544 46.5458 313.578 46.4846C313.613 46.4235 313.66 46.3702 313.716 46.3282C313.773 46.2862 313.837 46.2564 313.906 46.2408C314.685 46.0423 315.5 46.0303 316.285 46.2058C317.07 46.3813 317.802 46.7393 318.423 47.2507C318.476 47.2909 318.521 47.3412 318.554 47.3987C318.588 47.4562 318.61 47.5198 318.618 47.5857C318.627 47.6517 318.623 47.7187 318.606 47.783C318.589 47.8473 318.559 47.9076 318.519 47.9604C318.46 48.026 318.391 48.0814 318.314 48.1242Z" fill="#263238"/>
<path d="M314.288 65.9073C315.531 65.7747 316.724 65.3493 317.771 64.666C318.817 63.9827 319.686 63.061 320.307 61.9766C320.323 61.9454 320.333 61.9113 320.335 61.8762C320.338 61.8412 320.333 61.8061 320.322 61.7729C320.31 61.7397 320.292 61.7092 320.269 61.6832C320.245 61.6573 320.216 61.6363 320.184 61.6218C320.155 61.6055 320.123 61.5953 320.089 61.592C320.056 61.5887 320.022 61.5923 319.99 61.6025C319.958 61.6127 319.929 61.6294 319.903 61.6515C319.878 61.6736 319.858 61.7006 319.843 61.731C319.254 62.7284 318.44 63.5746 317.466 64.2024C316.492 64.8303 315.386 65.2224 314.234 65.3477C314.198 65.3494 314.164 65.3582 314.132 65.3738C314.1 65.3893 314.072 65.4111 314.049 65.438C314.026 65.4648 314.009 65.4961 313.998 65.5299C313.988 65.5636 313.984 65.5992 313.988 65.6343C313.992 65.6685 314.002 65.7016 314.018 65.7318C314.034 65.7619 314.056 65.7886 314.083 65.8102C314.11 65.8317 314.14 65.8478 314.173 65.8575C314.206 65.8671 314.241 65.8701 314.275 65.8663L314.288 65.9073Z" fill="#263238"/>
<path d="M301.732 52.0946C301.651 52.1606 301.549 52.1946 301.445 52.1901C301.38 52.1788 301.318 52.1544 301.262 52.1184C301.207 52.0824 301.159 52.0357 301.122 51.9809C301.085 51.9261 301.06 51.8644 301.047 51.7995C301.035 51.7346 301.036 51.6679 301.049 51.6033C301.197 50.8097 301.531 50.0627 302.025 49.4243C302.518 48.7858 303.157 48.2742 303.888 47.9319C303.95 47.9076 304.016 47.8958 304.082 47.8971C304.149 47.8983 304.214 47.9127 304.275 47.9393C304.336 47.9659 304.391 48.0043 304.437 48.0522C304.483 48.1001 304.519 48.1566 304.543 48.2185C304.568 48.2804 304.579 48.3464 304.578 48.4128C304.577 48.4792 304.562 48.5447 304.536 48.6055C304.509 48.6664 304.471 48.7214 304.423 48.7674C304.375 48.8134 304.319 48.8495 304.257 48.8737C303.686 49.1597 303.19 49.5753 302.808 50.0871C302.427 50.599 302.17 51.193 302.059 51.8216C302.026 51.8873 301.98 51.9454 301.924 51.9924C301.868 52.0393 301.802 52.0741 301.732 52.0946Z" fill="#263238"/>
<path d="M337.712 52.396C337.152 55.0163 335.583 57.3108 333.344 58.7833C330.355 60.694 327.885 58.2783 327.776 54.9209C327.776 51.9319 329.25 47.237 332.676 46.732C336.101 46.227 338.34 49.175 337.712 52.396Z" fill="#E4897B"/>
<path d="M290.707 93.5857C285.593 98.4552 281.831 104.569 279.788 111.328C277.222 119.517 274.82 138.802 273.647 149.27C273.4 151.291 272.509 153.18 271.106 154.655C269.702 156.13 267.86 157.113 265.853 157.459L237.11 162.468L239.403 177.085L275.817 173.577C279.713 173.202 283.385 171.58 286.287 168.951C289.188 166.323 291.164 162.829 291.921 158.988C294.146 147.728 297.121 131.405 298.472 118.48C300.765 96.5201 298.35 91.3201 290.707 93.5857Z" fill="#1B5B64"/>
<path opacity="0.1" d="M290.707 93.5857C285.593 98.4552 281.831 104.569 279.788 111.328C277.222 119.517 274.82 138.802 273.647 149.27C273.4 151.291 272.509 153.18 271.106 154.655C269.702 156.13 267.86 157.113 265.853 157.459L237.11 162.468L239.403 177.085L275.817 173.577C279.713 173.202 283.385 171.58 286.287 168.951C289.188 166.323 291.164 162.829 291.921 158.988C294.146 147.728 297.121 131.405 298.472 118.48C300.765 96.5201 298.35 91.3201 290.707 93.5857Z" fill="black"/>
<path d="M290.684 200.423C290.684 200.423 262.869 336.413 261.914 388.631L280.448 396.916C280.448 396.916 295.543 337.915 300.442 304.763C300.442 304.763 313.435 278.436 316.929 256.995C316.929 256.995 316.206 351.167 325.964 400.86L343.352 399.495C343.352 399.495 360.89 222.834 357.724 194.555L290.684 200.423Z" fill="#1B5B64"/>
<path opacity="0.6" d="M290.684 200.423C290.684 200.423 262.869 336.413 261.914 388.631L280.448 396.916C280.448 396.916 295.543 337.915 300.442 304.763C300.442 304.763 313.435 278.436 316.929 256.995C316.929 256.995 316.206 351.167 325.964 400.86L343.352 399.495C343.352 399.495 360.89 222.834 357.724 194.555L290.684 200.423Z" fill="white"/>
<path opacity="0.2" d="M313.91 222.67C313.91 222.67 311.849 255.002 314.784 266.876C315.671 263.532 316.408 260.202 316.926 256.981L313.91 222.67Z" fill="black"/>
<path d="M290.708 93.5858C290.708 93.5858 293.656 87.758 319.56 86.2567C345.464 84.7554 357.037 88.5905 357.037 88.5905C357.037 88.5905 354.69 143.429 357.693 194.568C357.693 194.568 314.373 210.004 290.653 200.423C290.68 200.423 272.91 134.189 290.708 93.5858Z" fill="#1B5B64"/>
<path opacity="0.2" d="M328.842 85.9302C325.976 85.9302 322.892 86.0667 319.562 86.2577C317.555 86.3806 315.713 86.517 313.98 86.6808C313.98 86.6808 316.191 90.8708 319.562 90.8708C321.396 90.8764 323.203 90.4282 324.823 89.5662C326.442 88.7042 327.823 87.4551 328.842 85.9302Z" fill="black"/>
<path opacity="0.3" d="M356.372 157.187L316.929 177.126C316.929 177.126 341.796 177.891 356.659 169.825C356.541 165.557 356.445 161.345 356.372 157.187Z" fill="black"/>
<path opacity="0.1" d="M319.059 101.611L333.076 163.97L329.964 172.036L319.059 101.611Z" fill="black"/>
<path d="M319.159 103.356L245.344 114.54L256.033 185.084L329.847 173.9L319.159 103.356Z" fill="#1B5B64"/>
<path opacity="0.1" d="M319.159 103.356L245.344 114.54L256.033 185.084L329.847 173.9L319.159 103.356Z" fill="white"/>
<path d="M263.538 110.19L206.432 119.031L217.333 189.449L274.439 180.608L263.538 110.19Z" fill="#1B5B64"/>
<path opacity="0.3" d="M263.538 110.19L206.432 119.031L217.333 189.449L274.439 180.608L263.538 110.19Z" fill="white"/>
<path opacity="0.3" d="M243.077 113.349L226.919 115.851L229.854 134.814L246.012 132.313L243.077 113.349Z" fill="white"/>
<path opacity="0.1" d="M303.367 104.032L287.209 106.534L290.145 125.497L306.303 122.996L303.367 104.032Z" fill="black"/>
<path opacity="0.2" d="M268.604 166.535L250.949 169.268L252.613 180.018L270.268 177.284L268.604 166.535Z" fill="white"/>
<path opacity="0.2" d="M296.183 176.567L294.368 174.165L288.513 175.42C288.201 176.417 288.081 177.463 288.158 178.505L296.347 177.249L296.183 176.567Z" fill="#2E353A"/>
<path d="M286.065 147.005C284.7 147.469 282.789 147.442 282.598 145.64C282.448 144.139 284.222 142.91 285.574 143.156C285.679 143.174 285.786 143.15 285.873 143.088C285.96 143.027 286.019 142.933 286.038 142.828C286.056 142.723 286.031 142.616 285.97 142.529C285.908 142.442 285.815 142.383 285.71 142.364C285.227 142.297 284.735 142.332 284.266 142.469C283.798 142.606 283.364 142.841 282.994 143.159C282.623 143.477 282.325 143.869 282.118 144.311C281.91 144.753 281.8 145.234 281.793 145.722C282.025 148.097 284.523 148.451 286.365 147.769C286.897 147.592 286.611 146.827 286.065 147.005Z" fill="white"/>
<path d="M287.43 139.498C287.308 138.993 286.502 139.075 286.611 139.58C287.203 142.183 287.781 144.78 288.345 147.373C288.454 147.878 289.259 147.81 289.15 147.292L287.43 139.498Z" fill="white"/>
<path d="M292.281 141.026C292.226 141.041 292.177 141.075 292.144 141.122C288.5 141.818 290.643 147.509 294.028 146.458C294.724 146.156 295.284 145.607 295.599 144.916C295.914 144.225 295.962 143.443 295.734 142.719C295.652 142.359 295.491 142.022 295.263 141.733C295.034 141.444 294.743 141.209 294.412 141.047C294.081 140.885 293.718 140.799 293.349 140.795C292.98 140.791 292.615 140.87 292.281 141.026ZM294.083 145.544C291.694 146.909 289.579 142.377 292.295 141.913C292.378 141.903 292.455 141.864 292.513 141.804C294.942 140.794 295.939 144.479 294.083 145.544Z" fill="white"/>
<path d="M299.089 138.871L297.601 139.13L297.356 137.52C297.274 137.001 296.469 137.083 296.55 137.602C296.632 138.12 296.714 138.707 296.81 139.267L295.336 139.512C294.831 139.608 294.899 140.413 295.418 140.331L296.933 140.072L297.833 145.927C297.915 146.432 298.721 146.35 298.639 145.832C298.338 143.866 298.024 141.901 297.724 139.936L299.185 139.676C299.717 139.594 299.608 138.775 299.089 138.871Z" fill="white"/>
<path d="M304.79 139.949C304.294 139.656 303.724 139.511 303.148 139.533C302.572 139.555 302.015 139.742 301.542 140.072C301.351 139.008 301.146 137.943 300.928 136.879C300.819 136.374 300.014 136.455 300.123 136.974C300.678 139.704 301.133 142.433 301.488 145.163C301.569 145.682 302.375 145.6 302.293 145.081C302.102 143.716 301.883 142.351 301.651 140.987C301.862 140.777 302.115 140.613 302.392 140.505C302.67 140.398 302.967 140.349 303.264 140.362C303.562 140.374 303.853 140.449 304.121 140.58C304.388 140.711 304.625 140.896 304.818 141.123C305.311 142.164 305.568 143.301 305.568 144.453C305.593 144.548 305.651 144.631 305.731 144.687C305.811 144.742 305.909 144.768 306.006 144.758C306.103 144.748 306.194 144.703 306.261 144.633C306.329 144.562 306.369 144.469 306.374 144.371C306.292 142.897 306.237 140.727 304.79 139.949Z" fill="white"/>
<path d="M308.23 138.393C307.902 138.568 307.614 138.81 307.387 139.104C307.159 139.397 306.997 139.736 306.911 140.098C306.824 140.459 306.815 140.835 306.885 141.2C306.955 141.565 307.102 141.911 307.315 142.215C307.492 142.584 307.743 142.913 308.053 143.18C308.363 143.448 308.724 143.648 309.116 143.768C309.507 143.889 309.919 143.927 310.325 143.881C310.732 143.834 311.124 143.704 311.478 143.498C311.942 143.266 311.656 142.501 311.192 142.733C310.813 143.004 310.353 143.137 309.889 143.109C309.424 143.082 308.983 142.896 308.639 142.583C308.375 142.34 308.153 142.054 307.984 141.737C309.185 141.833 311.383 141.587 311.437 140.277C311.505 138.598 309.581 137.861 308.23 138.393ZM310.523 140.399C310.4 140.591 309.84 140.713 309.622 140.782C309.005 140.981 308.347 141.019 307.711 140.891C307.67 140.672 307.673 140.447 307.72 140.229C307.767 140.011 307.857 139.804 307.984 139.622C308.18 139.378 308.446 139.2 308.746 139.112C309.047 139.024 309.366 139.031 309.663 139.13C310.059 139.226 310.905 139.881 310.523 140.399Z" fill="white"/>
<path d="M317.459 139.976C317.233 139.587 316.883 139.286 316.465 139.12C316.046 138.954 315.584 138.934 315.153 139.062C314.498 139.198 312.915 139.853 313.27 138.557C313.488 137.697 314.634 137.369 315.44 137.438C315.958 137.438 316.095 136.687 315.562 136.632C314.198 136.51 311.563 137.738 312.41 139.526C312.805 140.358 313.775 140.263 314.566 140.072C314.999 139.894 315.463 139.806 315.931 139.812C316.102 139.824 316.267 139.884 316.407 139.984C316.547 140.084 316.656 140.221 316.722 140.379C316.789 140.538 316.81 140.712 316.784 140.881C316.757 141.051 316.684 141.21 316.572 141.341C315.999 142.092 314.88 141.955 314.061 141.819C313.958 141.809 313.855 141.838 313.773 141.901C313.691 141.964 313.636 142.056 313.618 142.158C313.601 142.26 313.623 142.365 313.68 142.451C313.737 142.538 313.824 142.599 313.925 142.624C314.436 142.769 314.972 142.799 315.496 142.712C316.02 142.625 316.518 142.422 316.955 142.119C317.251 141.859 317.459 141.512 317.55 141.128C317.64 140.744 317.609 140.342 317.459 139.976Z" fill="white"/>
<path d="M330.061 162.508L306.217 168.322C304.392 167.152 302.211 166.668 300.062 166.958C296.705 167.558 288.202 174.369 288.516 175.378C288.83 176.388 296.705 182.557 298.165 182.107C299.625 181.657 308.811 175.16 308.811 175.16L331.521 173.263L330.061 162.508Z" fill="#E4897B"/>
<path d="M355.528 88.5092C355.528 88.5092 345.51 91.1705 346.93 109.759C347.557 117.839 347.871 126.465 348.035 133.644C348.134 138.446 346.865 143.178 344.376 147.286C341.887 151.395 338.28 154.71 333.977 156.845L314.406 164.843L316.931 177.127C316.931 177.127 345.374 174.52 355.378 166.522C365.382 158.524 368.862 141.45 367.238 127.297C364.972 107.644 365.723 87.7176 355.528 88.5092Z" fill="#1B5B64"/>
<path opacity="0.1" d="M355.528 88.5092C355.528 88.5092 345.51 91.1705 346.93 109.759C347.557 117.839 347.871 126.465 348.035 133.644C348.134 138.446 346.865 143.178 344.376 147.286C341.887 151.395 338.28 154.71 333.977 156.845L314.406 164.843L316.931 177.127C316.931 177.127 345.374 174.52 355.378 166.522C365.382 158.524 368.862 141.45 367.238 127.297C364.972 107.644 365.723 87.7176 355.528 88.5092Z" fill="black"/>
<path d="M316.259 161.73L317.924 178.818L313.324 179.255L310.881 163.259L316.259 161.73Z" fill="#1B5B64"/>
<path opacity="0.6" d="M316.259 161.73L317.924 178.818L313.324 179.255L310.881 163.259L316.259 161.73Z" fill="white"/>
<path opacity="0.4" d="M340.313 114.803L324.449 116.221L324.675 118.75L340.539 117.331L340.313 114.803Z" fill="white"/>
<path d="M319.558 86.257L324.69 93.0811L335.513 85.9431V85.288C335.539 84.7153 335.428 84.1446 335.191 83.6227C334.954 83.1008 334.597 82.6426 334.148 82.2854C333.631 81.9668 333.043 81.7792 332.437 81.7388C331.83 81.6983 331.223 81.8063 330.668 82.0534L319.558 86.257Z" fill="#1B5B64"/>
<path d="M312.338 86.8021L313.607 84.7003C315.204 82.8168 316.473 83.7858 316.473 83.7858L319.557 86.2562L315.053 93.0802L312.338 86.8021Z" fill="#1B5B64"/>
<path opacity="0.6" d="M319.558 86.257L324.69 93.0811L335.513 85.9431V85.288C335.539 84.7153 335.428 84.1446 335.191 83.6227C334.954 83.1008 334.597 82.6426 334.148 82.2854C333.631 81.9668 333.043 81.7792 332.437 81.7388C331.83 81.6983 331.223 81.8063 330.668 82.0534L319.558 86.257Z" fill="white"/>
<path opacity="0.6" d="M312.338 86.8021L313.607 84.7003C315.204 82.8168 316.473 83.7858 316.473 83.7858L319.557 86.2562L315.053 93.0802L312.338 86.8021Z" fill="white"/>
<path d="M337.439 52.123C338.162 47.4553 334.927 46.8139 332.798 47.3735C330.669 47.933 328.363 51.3178 328.363 51.3178C326.288 47.9603 325.114 39.4575 325.114 39.4575C322.477 40.9147 319.538 41.7397 316.528 41.8676C313.517 41.9955 310.519 41.4228 307.768 40.1945C306.707 43.0618 304.724 45.4957 302.131 47.1141C302.131 47.1141 298.282 45.3535 300.425 36.5095C302.854 26.4509 317.963 16.7197 333.18 26.7511C348.398 36.7825 339.186 55.4122 339.186 55.4122C339.186 55.4122 335.733 61.5129 332.675 63.8058C332.934 61.9953 332.934 60.1571 332.675 58.3465C333.916 57.775 334.998 56.9094 335.828 55.8248C336.658 54.7403 337.211 53.4696 337.439 52.123Z" fill="#2E353A"/>
<path d="M305.963 37.6968C306.844 38.7721 307.863 39.7266 308.993 40.5356C310.144 41.3567 311.391 42.0349 312.705 42.5555C314.018 43.0727 315.396 43.4079 316.8 43.5518C318.237 43.6883 319.686 43.647 321.113 43.429C319.695 43.7606 318.242 43.9165 316.786 43.893C315.31 43.8661 313.844 43.6318 312.433 43.197C310.994 42.7736 309.618 42.1633 308.338 41.3818C307.038 40.6034 305.849 39.6531 304.803 38.5566L305.963 37.6968Z" fill="#2E353A"/>
<path d="M99.2893 280.682H104.832C108.945 280.682 111.752 278.146 111.752 274.342C111.752 270.538 108.945 268.002 104.832 268.002H99.2893V280.682ZM101.644 278.69V269.995H104.724C107.55 269.995 109.379 271.716 109.379 274.342C109.379 276.969 107.55 278.69 104.724 278.69H101.644Z" fill="#BABABA"/>
<path d="M119.742 280.864C123.673 280.864 126.571 278.11 126.571 274.342C126.571 270.574 123.673 267.821 119.742 267.821C115.811 267.821 112.913 270.592 112.913 274.342C112.913 278.092 115.811 280.864 119.742 280.864ZM119.742 278.798C117.188 278.798 115.286 276.933 115.286 274.342C115.286 271.752 117.188 269.886 119.742 269.886C122.296 269.886 124.198 271.752 124.198 274.342C124.198 276.933 122.296 278.798 119.742 278.798Z" fill="#BABABA"/>
<path d="M137.561 268.002V276.588L130.569 268.002H128.631V280.682H130.968V272.096L137.96 280.682H139.898V268.002H137.561Z" fill="#BABABA"/>
<path d="M145.214 278.708V275.212H151.337V273.273H145.214V269.976H152.116V268.002H142.859V280.682H152.37V278.708H145.214Z" fill="#BABABA"/>
</svg>
