<svg width="17" height="13" viewBox="0 0 17 13" fill="none" xmlns="http://www.w3.org/2000/svg">
<path d="M0.235279 7.07507L5.90223 12.7616C6.4082 13.2693 7.28523 12.9139 7.28523 12.1862V8.93674H11.8728C12.3214 8.93674 12.6823 8.57456 12.6823 8.12437V4.87491C12.6823 4.42472 12.3214 4.06255 11.8728 4.06255H7.28523V0.813085C7.28523 0.0887261 6.41158 -0.270068 5.90223 0.23766L0.235279 5.92421C-0.0784264 6.24239 -0.0784264 6.75689 0.235279 7.07507ZM10.5235 12.5924V11.2384C10.5235 11.015 10.7056 10.8323 10.9283 10.8323H13.7617C14.3588 10.8323 14.8412 10.3482 14.8412 9.7491V3.25018C14.8412 2.65106 14.3588 2.16703 13.7617 2.16703H10.9283C10.7056 2.16703 10.5235 1.98424 10.5235 1.76084V0.406902C10.5235 0.183502 10.7056 0.00071991 10.9283 0.00071991H13.7617C15.5495 0.00071991 17 1.45621 17 3.25018V9.7491C17 11.5431 15.5495 12.9986 13.7617 12.9986H10.9283C10.7056 12.9986 10.5235 12.8158 10.5235 12.5924Z" fill="#EA2604"/>
</svg>
