<svg width="21" height="20" viewBox="0 0 21 20" fill="none" xmlns="http://www.w3.org/2000/svg">
<path fill-rule="evenodd" clip-rule="evenodd" d="M4.22709 8.3335C4.22709 8.3335 4.70104 8.27238 5.38874 8.09683C7.20208 7.63406 10.5 6.37797 10.5 3.3569C10.5 2.9161 10.4092 2.47962 10.2329 2.07238C10.0565 1.66513 9.79801 1.2951 9.47214 0.983409C9.14626 0.671718 8.7594 0.424471 8.33362 0.255785C7.90785 0.0870994 7.45151 0.000277796 6.99065 0.000277796H3.55449C3.08988 -0.00543969 2.6287 0.077151 2.19772 0.243258C1.76674 0.409365 1.37454 0.65568 1.04388 0.967913C0.713211 1.28015 0.450664 1.65208 0.271469 2.06213C0.0922744 2.47218 0 2.91219 0 3.35662C0 3.80105 0.0922744 4.24106 0.271469 4.65111C0.450664 5.06116 0.713211 5.43309 1.04388 5.74533C1.37454 6.05756 1.76674 6.30387 2.19772 6.46998C2.6287 6.63609 3.08988 6.71868 3.55449 6.71296H4.22709V8.3335ZM5.38874 5.60187H3.55449C3.24312 5.60655 2.93388 5.55194 2.64479 5.44121C2.3557 5.33047 2.09253 5.16584 1.8706 4.95688C1.64868 4.74793 1.47243 4.49883 1.35213 4.2241C1.23183 3.94936 1.16987 3.65448 1.16987 3.35662C1.16987 3.05876 1.23183 2.76388 1.35213 2.48914C1.47243 2.21441 1.64868 1.96531 1.8706 1.75636C2.09253 1.5474 2.3557 1.38276 2.64479 1.27203C2.93388 1.1613 3.24312 1.10669 3.55449 1.11137H6.99065C7.29896 1.11137 7.60424 1.16946 7.88908 1.2823C8.17391 1.39515 8.43272 1.56056 8.65073 1.76907C8.86873 1.97759 9.04166 2.22513 9.15964 2.49757C9.27763 2.77001 9.33835 3.06201 9.33835 3.3569C9.33835 4.79188 8.28822 5.74742 6.85881 6.40686C6.38438 6.62246 5.89281 6.80172 5.38874 6.94296V5.60187ZM4.98216 14.4445C6.26578 14.4445 7.30546 13.4501 7.30546 12.2223C7.30546 10.9946 6.26578 10.0001 4.98216 10.0001C3.69854 10.0001 2.65886 10.9946 2.65886 12.2223C2.65886 13.4501 3.69854 14.4445 4.98216 14.4445ZM6.14381 12.2223C6.14381 12.517 6.02142 12.7996 5.80357 13.008C5.58572 13.2164 5.29025 13.3334 4.98216 13.3334C4.67407 13.3334 4.3786 13.2164 4.16075 13.008C3.9429 12.7996 3.82051 12.517 3.82051 12.2223C3.82051 11.9276 3.9429 11.645 4.16075 11.4367C4.3786 11.2283 4.67407 11.1112 4.98216 11.1112C5.29025 11.1112 5.58572 11.2283 5.80357 11.4367C6.02142 11.645 6.14381 11.9276 6.14381 12.2223ZM0.0451468 17.9261C0.0451468 16.3495 3.33436 15.5556 4.98216 15.5556C6.62996 15.5556 9.91918 16.35 9.91918 17.9261V20H0.0451468V17.9261ZM1.2068 18.8889V17.9261C1.2068 17.9206 1.2068 17.9095 1.2219 17.8817C1.24049 17.8473 1.28289 17.7867 1.37466 17.7056C1.56575 17.5361 1.88578 17.3511 2.32895 17.1806C3.21761 16.8389 4.30376 16.6667 4.98216 16.6667C5.65998 16.6667 6.74729 16.8389 7.63537 17.1806C8.07796 17.3511 8.39857 17.5361 8.58967 17.7056C8.68144 17.7867 8.72384 17.8473 8.74242 17.8811C8.75753 17.9089 8.75752 17.9211 8.75752 17.9256V18.8889H1.2068ZM18.3411 12.2223C18.3411 13.4501 17.3015 14.4445 16.0178 14.4445C14.7342 14.4445 13.6945 13.4501 13.6945 12.2223C13.6945 10.9946 14.7342 10.0001 16.0178 10.0001C17.3015 10.0001 18.3411 10.9946 18.3411 12.2223ZM16.0178 13.3334C16.3259 13.3334 16.6214 13.2164 16.8393 13.008C17.0571 12.7996 17.1795 12.517 17.1795 12.2223C17.1795 11.9276 17.0571 11.645 16.8393 11.4367C16.6214 11.2283 16.3259 11.1112 16.0178 11.1112C15.7098 11.1112 15.4143 11.2283 15.1964 11.4367C14.9786 11.645 14.8562 11.9276 14.8562 12.2223C14.8562 12.517 14.9786 12.7996 15.1964 13.008C15.4143 13.2164 15.7098 13.3334 16.0178 13.3334ZM11.0808 17.9261C11.0808 16.3495 14.37 15.5556 16.0178 15.5556C17.6656 15.5556 20.9549 16.35 20.9549 17.9261V20H11.0808V17.9261ZM12.2425 18.8889V17.9261C12.2425 17.9206 12.2425 17.9095 12.2576 17.8817C12.2762 17.8473 12.3186 17.7867 12.4098 17.7056C12.6014 17.5361 12.922 17.3511 13.3646 17.1806C14.2533 16.8389 15.3394 16.6667 16.0178 16.6667C16.6957 16.6667 17.783 16.8389 18.671 17.1806C19.1136 17.3511 19.4343 17.5361 19.6259 17.7056C19.7171 17.7867 19.7595 17.8473 19.7781 17.8811C19.7932 17.9089 19.7932 17.9211 19.7932 17.9256V18.8889H12.2425ZM16.0759 8.6146C16.7555 8.81904 17.2376 8.88904 17.2376 8.88904V7.26851H17.4455C17.9101 7.27423 18.3713 7.19164 18.8023 7.02553C19.2333 6.85942 19.6255 6.61311 19.9561 6.30087C20.2868 5.98864 20.5493 5.61671 20.7285 5.20666C20.9077 4.79661 21 4.3566 21 3.91217C21 3.46774 20.9077 3.02773 20.7285 2.61768C20.5493 2.20763 20.2868 1.83569 19.9561 1.52346C19.6255 1.21123 19.2333 0.964913 18.8023 0.798806C18.3713 0.632699 17.9101 0.550108 17.4455 0.555826H15.171C14.2403 0.555826 13.3476 0.909469 12.6895 1.53896C12.0314 2.16845 11.6617 3.02221 11.6617 3.91245C11.6617 6.85463 14.4421 8.1235 16.0759 8.6146ZM17.4455 6.15741H16.0759V7.4424C15.7071 7.31641 15.3487 7.16413 15.0037 6.98685C13.7933 6.35852 12.8233 5.41576 12.8233 3.91189C12.8235 3.31644 13.0709 2.74542 13.5111 2.32442C13.9514 1.90343 14.5484 1.66692 15.171 1.66692H17.4455C17.7569 1.66224 18.0661 1.71685 18.3552 1.82758C18.6443 1.93831 18.9075 2.10295 19.1294 2.3119C19.3513 2.52086 19.5276 2.76996 19.6479 3.04469C19.7682 3.31943 19.8301 3.61431 19.8301 3.91217C19.8301 4.21003 19.7682 4.50491 19.6479 4.77964C19.5276 5.05438 19.3513 5.30348 19.1294 5.51243C18.9075 5.72139 18.6443 5.88602 18.3552 5.99675C18.0661 6.10749 17.7569 6.1621 17.4455 6.15741Z" fill="#006970"/>
</svg>
